<svg width="222" height="48" viewBox="0 0 111 24" fill="none" xmlns="http://www.w3.org/2000/svg">
<path d="M44.5388 13.8161L42.6065 8.64188C42.5277 8.43026 42.2264 8.43026 42.1474 8.64188L40.2155 13.8164C40.2018 13.8532 40.1972 13.8927 40.2022 13.9316C40.2072 13.9705 40.2216 14.0077 40.2441 14.0399C40.2667 14.0721 40.2968 14.0984 40.3318 14.1165C40.3668 14.1347 40.4057 14.1441 40.4451 14.1441H44.3091C44.3486 14.1441 44.3875 14.1346 44.4225 14.1165C44.4575 14.0983 44.4875 14.072 44.5101 14.0398C44.5326 14.0075 44.547 13.9704 44.552 13.9315C44.5569 13.8926 44.5523 13.853 44.5386 13.8162L44.5388 13.8161ZM45.4313 16.7244H39.3231C39.2731 16.7244 39.2243 16.7396 39.1833 16.768C39.1423 16.7963 39.1109 16.8365 39.0936 16.883L37.891 20.1025C37.8736 20.1491 37.8423 20.1892 37.8013 20.2176C37.7602 20.2459 37.7115 20.2611 37.6615 20.2611H35.014C34.974 20.2611 34.9345 20.2514 34.8992 20.2327C34.8639 20.2141 34.8336 20.1871 34.8112 20.1542C34.7888 20.1212 34.7748 20.0833 34.7706 20.0438C34.7663 20.0043 34.7719 19.9643 34.7868 19.9274L40.8821 4.84296C40.9004 4.7979 40.9318 4.75931 40.9723 4.73214C41.0128 4.70497 41.0606 4.69048 41.1095 4.69053H43.6446C43.7445 4.69053 43.8344 4.75085 43.8718 4.84296L49.967 19.9272C49.9819 19.9642 49.9875 20.0042 49.9833 20.0437C49.9791 20.0833 49.9651 20.1213 49.9427 20.1542C49.9203 20.1872 49.89 20.2142 49.8547 20.2329C49.8193 20.2516 49.7798 20.2613 49.7398 20.2613H47.0927C47.0427 20.2613 46.9939 20.2461 46.9529 20.2177C46.9119 20.1893 46.8806 20.1491 46.8632 20.1025L45.6605 16.883C45.6431 16.8365 45.6118 16.7963 45.5708 16.768C45.5298 16.7396 45.481 16.7244 45.431 16.7244H45.4313ZM51.2074 9.9844H53.4718C53.5367 9.9844 53.599 10.01 53.6449 10.0556C53.6909 10.1013 53.7167 10.1631 53.7167 10.2276V20.0179C53.7167 20.0824 53.6909 20.1443 53.6449 20.1899C53.599 20.2355 53.5367 20.2611 53.4718 20.2611H51.2074C51.1425 20.2611 51.0802 20.2355 51.0343 20.1899C50.9884 20.1443 50.9626 20.0824 50.9626 20.0179V10.2275C50.9626 10.163 50.9884 10.1011 51.0343 10.0555C51.0802 10.0099 51.1425 9.98424 51.2074 9.98424V9.9844ZM61.9751 12.3659C61.9751 12.4304 61.9493 12.4923 61.9033 12.5379C61.8574 12.5835 61.7951 12.6091 61.7302 12.6091H61.6617C60.542 12.6091 59.7208 12.876 59.1984 13.4099C58.6757 13.9437 58.4149 14.8262 58.4149 16.057V20.0179C58.4149 20.0824 58.3891 20.1443 58.3432 20.1899C58.2973 20.2355 58.235 20.2611 58.17 20.2611H55.9278C55.8629 20.2611 55.8006 20.2355 55.7547 20.1899C55.7088 20.1443 55.683 20.0824 55.683 20.0179V10.2275C55.683 10.163 55.7088 10.1011 55.7547 10.0555C55.8006 10.0099 55.8629 9.98424 55.9278 9.98424H58.1475C58.2125 9.98424 58.2747 10.0099 58.3207 10.0555C58.3666 10.1011 58.3924 10.163 58.3924 10.2275V12.164H58.4373C58.7059 11.3633 59.1313 10.7482 59.7138 10.3178C60.2957 9.88792 61.0123 9.67273 61.8631 9.67273H61.9751V12.3659ZM68.1666 12.2754C68.1016 12.2754 68.0394 12.301 67.9934 12.3466C67.9475 12.3923 67.9217 12.4541 67.9217 12.5186V16.5908C67.9217 17.0061 68.0033 17.3027 68.1679 17.4806C68.3319 17.6585 68.6156 17.7475 69.0187 17.7475H69.2441C69.309 17.7475 69.3713 17.7731 69.4172 17.8187C69.4631 17.8643 69.4889 17.9262 69.4889 17.9907V20.0399C69.4889 20.1045 69.4631 20.1663 69.4172 20.2119C69.3713 20.2576 69.309 20.2832 69.2441 20.2832H68.2797C67.2796 20.2832 66.5109 20.0275 65.9735 19.5158C65.436 19.0042 65.1673 18.2445 65.1673 17.2359V12.5186C65.1673 12.4541 65.1415 12.3923 65.0956 12.3466C65.0497 12.301 64.9874 12.2754 64.9224 12.2754H63.509C63.444 12.2754 63.3818 12.2498 63.3358 12.2042C63.2899 12.1585 63.2641 12.0967 63.2641 12.0322V10.2275C63.2641 10.163 63.2899 10.1011 63.3358 10.0555C63.3818 10.0099 63.444 9.98424 63.509 9.98424H64.9226C64.9875 9.98424 65.0498 9.95861 65.0957 9.913C65.1417 9.86738 65.1675 9.80551 65.1675 9.741V6.11235C65.1675 6.04784 65.1932 5.98597 65.2392 5.94035C65.2851 5.89473 65.3474 5.86911 65.4123 5.86911H67.6767C67.7416 5.86911 67.8039 5.89473 67.8498 5.94035C67.8958 5.98597 67.9216 6.04784 67.9216 6.11235V9.741C67.9216 9.80551 67.9474 9.86738 67.9933 9.913C68.0392 9.95861 68.1015 9.98424 68.1664 9.98424H69.8038C69.8688 9.98424 69.931 10.0099 69.977 10.0555C70.0229 10.1011 70.0487 10.163 70.0487 10.2275V12.0323C70.0487 12.0968 70.0229 12.1587 69.977 12.2043C69.931 12.2499 69.8688 12.2756 69.8038 12.2756H68.1666V12.2754ZM78.5354 17.2137C79.0504 16.6798 79.3079 15.9829 79.3079 15.1226C79.3079 14.2628 79.0504 13.5655 78.5354 13.0317C78.0204 12.4979 77.3448 12.231 76.5089 12.231C75.6728 12.231 74.9976 12.4979 74.4825 13.0317C73.9676 13.5655 73.71 14.2628 73.71 15.1226C73.71 15.9829 73.9676 16.6798 74.4825 17.2137C74.9976 17.7475 75.6728 18.0144 76.5089 18.0144C77.3448 18.0144 78.0204 17.7475 78.5354 17.2137ZM73.307 19.9496C72.5457 19.5197 71.9446 18.893 71.5046 18.07C71.064 17.2471 70.844 16.2647 70.844 15.1226C70.844 13.981 71.064 12.9983 71.5046 12.1753C71.9446 11.3524 72.5457 10.7261 73.307 10.2958C74.0683 9.8657 74.9041 9.65068 75.8148 9.65068C76.6209 9.65068 77.3112 9.80635 77.8862 10.1177C78.4605 10.429 78.9195 10.8667 79.2631 11.4302H79.3079V10.2275C79.3079 10.163 79.3337 10.1011 79.3796 10.0555C79.4255 10.0099 79.4878 9.98424 79.5527 9.98424H81.7948C81.8597 9.98424 81.922 10.0099 81.9679 10.0555C82.0138 10.1011 82.0396 10.163 82.0396 10.2275V20.0177C82.0396 20.0822 82.0138 20.1441 81.9679 20.1897C81.922 20.2353 81.8597 20.261 81.7948 20.261H79.5527C79.4878 20.261 79.4255 20.2353 79.3796 20.1897C79.3337 20.1441 79.3079 20.0822 79.3079 20.0177V18.8152H79.2631C78.9195 19.379 78.4605 19.8162 77.8861 20.1275C77.3112 20.4389 76.621 20.5945 75.8148 20.5945C74.9041 20.5945 74.0683 20.3795 73.307 19.9496ZM91.3641 17.2137C91.8791 16.6798 92.1365 15.9829 92.1365 15.1226C92.1365 14.2628 91.8791 13.5655 91.3641 13.0317C90.8493 12.4979 90.1736 12.231 89.3377 12.231C88.5016 12.231 87.8263 12.4979 87.3113 13.0317C86.7964 13.5655 86.5387 14.2628 86.5387 15.1226C86.5387 15.9829 86.7964 16.6798 87.3113 17.2137C87.8263 17.7475 88.5016 18.0144 89.3377 18.0144C90.1736 18.0144 90.8493 17.7475 91.3641 17.2137ZM87.9606 20.1275C87.3859 19.8162 86.9267 19.379 86.5836 18.8152H86.5387V20.0177C86.5387 20.0822 86.5129 20.1441 86.467 20.1897C86.4211 20.2353 86.3588 20.261 86.2938 20.261H84.0294C83.9645 20.261 83.9022 20.2353 83.8563 20.1897C83.8104 20.1441 83.7846 20.0822 83.7846 20.0177V4.93328C83.7846 4.86877 83.8104 4.8069 83.8563 4.76128C83.9022 4.71567 83.9645 4.69004 84.0294 4.69004H86.2938C86.3588 4.69004 86.4211 4.71567 86.467 4.76128C86.5129 4.8069 86.5387 4.86877 86.5387 4.93328V11.4301H86.5836C86.9267 10.8666 87.3859 10.429 87.9606 10.1177C88.5352 9.80619 89.2257 9.65052 90.0319 9.65052C90.9423 9.65052 91.7784 9.86554 92.5397 10.2956C93.301 10.726 93.9018 11.3522 94.3422 12.175C94.7824 12.9985 95.0029 13.9812 95.0029 15.1228C95.0029 16.2649 94.7824 17.2471 94.3423 18.0702C93.9019 18.8931 93.3012 19.5199 92.5399 19.9496C91.7786 20.3797 90.9425 20.5949 90.0321 20.5949C89.2259 20.5949 88.5354 20.4392 87.9608 20.1277L87.9606 20.1275ZM98.8181 20.2611H96.5537C96.4887 20.2611 96.4265 20.2355 96.3805 20.1899C96.3346 20.1443 96.3088 20.0824 96.3088 20.0179V4.93377C96.3088 4.86926 96.3346 4.80739 96.3805 4.76177C96.4265 4.71615 96.4887 4.69053 96.5537 4.69053H98.8181C98.883 4.69053 98.9453 4.71615 98.9912 4.76177C99.0371 4.80739 99.0629 4.86926 99.0629 4.93377V20.0179C99.0629 20.0824 99.0371 20.1443 98.9912 20.1899C98.9453 20.2355 98.883 20.2611 98.8181 20.2611ZM104.159 12.3646C103.784 12.6555 103.531 13.0755 103.399 13.6249C103.363 13.7764 103.482 13.9216 103.639 13.9216H107.948C108.098 13.9216 108.215 13.7887 108.191 13.6421C108.105 13.1224 107.881 12.708 107.518 12.398C107.093 12.0348 106.536 11.8531 105.85 11.8531C105.163 11.8531 104.6 12.0236 104.159 12.3646ZM109.679 11.0855C110.56 12.0422 111 13.3954 111 15.145V15.4356C111 15.5001 110.974 15.562 110.928 15.6076C110.882 15.6532 110.82 15.6788 110.755 15.6788H103.556C103.52 15.6789 103.485 15.6867 103.452 15.7018C103.42 15.7169 103.391 15.7388 103.368 15.7661C103.345 15.7934 103.328 15.8253 103.318 15.8597C103.309 15.8941 103.307 15.9301 103.313 15.9652C103.428 16.6151 103.718 17.1314 104.182 17.514C104.712 17.9518 105.38 18.1702 106.186 18.1702C107.226 18.1702 108.19 17.7668 109.075 16.9597C109.184 16.8611 109.355 16.882 109.439 17.0019L110.54 18.5716C110.575 18.6204 110.59 18.6801 110.583 18.7394C110.576 18.7986 110.547 18.8533 110.502 18.893C109.962 19.3629 109.361 19.7594 108.716 20.0721C107.999 20.4204 107.156 20.5949 106.186 20.5949C105.066 20.5949 104.088 20.3685 103.253 19.9164C102.416 19.4643 101.767 18.8267 101.305 18.0034C100.842 17.1804 100.61 16.2277 100.61 15.145C100.61 14.0627 100.834 13.1063 101.282 12.2756C101.73 11.4453 102.357 10.8002 103.163 10.3403C103.969 9.88095 104.91 9.65084 105.984 9.65084C107.566 9.65084 108.798 10.1292 109.679 11.0855ZM54.0124 6.36499C54.0124 7.28249 53.2637 8.02632 52.3399 8.02632C51.416 8.02632 50.6673 7.28249 50.6673 6.36483C50.6673 5.44717 51.4162 4.70334 52.3399 4.70334C53.2637 4.70334 54.0124 5.44717 54.0124 6.36483" fill="#1E231E"/>
<path d="M12.8956 0.303002L2.1286 4.72883C1.52985 4.97499 1.53606 5.82001 2.13856 6.05725L12.9504 10.3165C13.9004 10.6908 14.9583 10.6908 15.9083 10.3165L26.7203 6.05709C27.3227 5.82001 27.3292 4.97516 26.7301 4.729L15.9634 0.30284C14.9812 -0.100947 13.8777 -0.100947 12.8954 0.30284" fill="#1E231E"/>
<path d="M15.3887 12.6423V23.2827C15.3887 23.7887 15.9024 24.1354 16.3759 23.9489L28.4237 19.3033C28.558 19.2504 28.6733 19.1586 28.7545 19.0398C28.8357 18.921 28.8791 18.7808 28.8791 18.6372V7.99687C28.8791 7.49077 28.3654 7.14423 27.8918 7.33072L15.8441 11.9763C15.7097 12.0292 15.5945 12.121 15.5133 12.2398C15.4321 12.3586 15.3887 12.4988 15.3887 12.6424" fill="#1E231E"/>
<path d="M12.5753 13.1915L8.63678 15.0808L1.08911 18.6735C0.610826 18.9028 0 18.5564 0 18.0284V8.0416C0 7.85058 0.0985941 7.68566 0.230815 7.56161C0.285058 7.50795 0.346596 7.4621 0.413638 7.42539C0.59385 7.31788 0.851109 7.28918 1.06984 7.37512L12.5152 11.8803C13.097 12.1095 13.1427 12.9194 12.5753 13.1916" fill="#1E231E"/>
</svg>
