<svg width="58" height="48" viewBox="0 0 58 48" fill="none" xmlns="http://www.w3.org/2000/svg">
<path d="M17.9285 40.2098C17.4808 40.2098 17.2569 39.6128 17.2569 38.4139V8.81003C17.2569 8.23795 17.1425 7.96932 16.9087 8.00415C15.4959 8.36232 14.7845 8.5414 14.7646 8.5414C14.3716 8.57623 14.1776 8.18323 14.1776 7.36242V4.79055C14.1776 4.07918 14.3915 3.67624 14.8194 3.58669L21.8933 1.76599C21.948 1.75106 22.0276 1.74111 22.132 1.74111C22.525 1.74111 22.719 2.15898 22.719 2.99969V38.4189C22.719 39.6178 22.4852 40.2147 22.0226 40.2147L17.9285 40.2098ZM36.25 40.2645C35.5336 40.2645 34.9168 40.2147 34.3895 40.1152C33.8622 40.0158 33.315 39.7919 32.7429 39.4437C32.1708 39.0954 31.7032 38.6179 31.3351 38.011C30.9669 37.4041 30.6685 36.5534 30.4396 35.464C30.2108 34.3745 30.0914 33.0811 30.0914 31.5788V17.8389C30.0914 17.4808 29.9919 17.3017 29.7979 17.3017H28.1364C27.6887 17.3017 27.4648 16.8739 27.4648 16.0182V14.5706C27.4648 13.6951 27.6887 13.2573 28.1364 13.2573H29.7979C29.9919 13.2573 30.0914 13.0186 30.0914 12.536L30.5739 2.11421C30.6287 1.16903 30.8575 0.696445 31.2704 0.696445H33.9517C34.3994 0.696445 34.6233 1.16903 34.6233 2.11421V12.536C34.6233 13.0186 34.7277 13.2573 34.9466 13.2573H38.3642C38.8119 13.2573 39.0358 13.6951 39.0358 14.5706V16.0182C39.0358 16.8739 38.8119 17.3017 38.3642 17.3017H34.9367C34.8123 17.3017 34.7277 17.3315 34.683 17.3962C34.6382 17.4559 34.6183 17.6051 34.6183 17.8389V31.6634C34.6183 32.6981 34.683 33.5637 34.8173 34.2502C34.9516 34.9367 35.1456 35.4441 35.4043 35.7625C35.663 36.0808 35.9217 36.2997 36.1803 36.4042C36.439 36.5136 36.7574 36.5634 37.1305 36.5634H39.0308C39.5133 36.5634 39.7521 36.8967 39.7521 37.5533V39.1601C39.7521 39.8914 39.4934 40.2595 38.9761 40.2595L36.25 40.2645ZM46.5325 43.4781C46.9404 43.4781 47.2986 43.1448 47.602 42.4732C47.9055 41.8016 48.0597 40.8515 48.0597 39.6178C48.0597 39.3293 47.8806 38.3393 47.5224 36.643L42.2693 14.8094C42.2344 14.5607 42.2145 14.3617 42.2145 14.2174C42.2145 13.5757 42.3488 13.2524 42.6175 13.2524H45.8609C46.1097 13.2524 46.3136 13.3369 46.4778 13.5061C46.6419 13.6752 46.7663 14.0184 46.8509 14.5358L50.3331 32.9667C50.4027 33.1806 50.4475 33.2901 50.4674 33.2901C50.5371 33.2901 50.5769 33.1906 50.5769 32.9966L53.3079 14.6154C53.3776 14.0781 53.492 13.72 53.6412 13.5309C53.7905 13.3419 53.9845 13.2474 54.2183 13.2474H56.4668C56.7702 13.2474 56.9245 13.5956 56.9245 14.2921C56.9245 14.4512 56.9046 14.6602 56.8697 14.9089L52.0991 39.7471C51.726 41.8016 51.3131 43.3736 50.8654 44.4631C50.4177 45.5525 49.9202 46.2937 49.363 46.6867C48.8109 47.0797 48.0796 47.2837 47.1643 47.3036H46.8956C45.448 47.3036 44.468 46.9205 43.9507 46.1494C43.8064 45.9903 43.7368 45.5774 43.7368 44.9157C43.7368 43.5925 43.9507 42.9309 44.3785 42.9309C44.4133 42.9309 44.7367 43.0204 45.3436 43.1995C45.9604 43.3885 46.3534 43.4781 46.5325 43.4781Z" fill="#151715"/>
<path fill-rule="evenodd" clip-rule="evenodd" d="M31.2695 2.15055L30.7878 12.5528C30.7868 12.8167 30.761 13.0995 30.662 13.3415C30.6088 13.4714 30.5196 13.6265 30.3664 13.7517C30.2015 13.8865 30.002 13.9538 29.7979 13.9538H28.2317C28.1983 14.0511 28.1613 14.2418 28.1613 14.5706V16.0182C28.1613 16.3314 28.1966 16.5126 28.228 16.6052H29.7979C29.9574 16.6052 30.1291 16.6434 30.2889 16.7411C30.447 16.8378 30.556 16.9698 30.628 17.101C30.7609 17.3433 30.7879 17.6176 30.7879 17.8389V31.5788C30.7879 33.0464 30.9047 34.29 31.1212 35.3208C31.3421 36.3724 31.6198 37.1375 31.9305 37.6498C32.245 38.1682 32.6351 38.5627 33.105 38.8488C33.6232 39.1642 34.092 39.3504 34.5186 39.4309C34.9919 39.5202 35.5632 39.568 36.2487 39.568C36.2487 39.568 36.2487 39.568 36.2487 39.568C36.2491 39.568 36.2496 39.568 36.25 39.568L38.9748 39.5631H38.9761C38.9855 39.5631 38.9933 39.5627 38.9997 39.5623C39.0068 39.5464 39.0164 39.5204 39.0257 39.4808C39.0427 39.4085 39.0557 39.3041 39.0557 39.1601V37.5533C39.0557 37.4291 39.0441 37.3424 39.0304 37.2855C39.028 37.2757 39.0257 37.2672 39.0234 37.2598H37.1305C36.7042 37.2598 36.2866 37.2042 35.9141 37.0477C35.5031 36.8802 35.1567 36.5621 34.8638 36.2016C34.4974 35.7507 34.2757 35.109 34.1338 34.3839C33.9876 33.6367 33.9219 32.722 33.9219 31.6634V17.8389C33.9219 17.7072 33.9272 17.5744 33.9444 17.4538C33.9571 17.365 33.9894 17.1676 34.1166 16.9909C34.3597 16.6484 34.7387 16.6052 34.9367 16.6052H38.2726C38.3039 16.5126 38.3393 16.3314 38.3393 16.0182V14.5706C38.3393 14.2418 38.3023 14.0511 38.2689 13.9538H34.9466C34.7567 13.9538 34.5612 13.8989 34.3904 13.773C34.2275 13.6529 34.1279 13.4984 34.0667 13.3611C33.9524 13.1046 33.9268 12.8049 33.9268 12.536V2.11421C33.9268 1.73123 33.8847 1.50741 33.8439 1.39289H31.3975C31.3473 1.51627 31.2928 1.75244 31.2695 2.15055ZM36.25 40.2645V40.9609C35.5034 40.9609 34.8414 40.9092 34.2603 40.7996C33.6324 40.6811 33.0067 40.4196 32.3808 40.0386C31.7065 39.6282 31.1614 39.0676 30.7396 38.3722C30.3141 37.6707 29.9948 36.7344 29.7581 35.6071C29.5169 34.4591 29.395 33.1159 29.395 31.5788V17.9981H28.1364C27.9089 17.9981 27.6777 17.9422 27.4684 17.8089C27.262 17.6774 27.1161 17.4957 27.0156 17.3037C26.8255 16.9403 26.7684 16.4841 26.7684 16.0182V14.5706C26.7684 14.0961 26.8253 13.6349 27.0126 13.2686C27.1115 13.0753 27.2558 12.8905 27.4623 12.756C27.6723 12.6191 27.9058 12.5609 28.1364 12.5609H29.3949C29.3949 12.5528 29.395 12.5445 29.395 12.536V12.5199L29.8784 2.07798L29.8787 2.07396C29.9077 1.57202 29.9852 1.1065 30.1623 0.744705C30.3561 0.348798 30.72 0 31.2704 0H33.9517C34.1935 0 34.4344 0.0663439 34.6463 0.215498C34.852 0.360245 34.9912 0.555059 35.0848 0.752747C35.2634 1.12977 35.3197 1.60876 35.3197 2.11421V12.536C35.3197 12.5445 35.3198 12.5528 35.3198 12.5609H38.3642C38.5948 12.5609 38.8283 12.6191 39.0383 12.756C39.2447 12.8905 39.3891 13.0753 39.4879 13.2686C39.6753 13.6349 39.7322 14.0961 39.7322 14.5706V16.0182C39.7322 16.4841 39.6751 16.9403 39.4849 17.3037C39.3845 17.4957 39.2386 17.6774 39.0322 17.8089C38.8229 17.9422 38.5917 17.9981 38.3642 17.9981H35.3148V31.6634C35.3148 32.6742 35.3784 33.4907 35.5008 34.1165C35.6276 34.7644 35.7939 35.1375 35.9448 35.3233C36.168 35.5979 36.3372 35.7164 36.4411 35.7584L36.4464 35.7606L36.4517 35.7628C36.5953 35.8235 36.8125 35.8669 37.1305 35.8669H39.0308C39.4513 35.8669 39.8613 36.0244 40.1361 36.4031C40.3809 36.7406 40.4486 37.1612 40.4486 37.5533V39.1601C40.4486 39.5868 40.3769 40.0314 40.1273 40.3854C39.8468 40.7832 39.4229 40.9556 38.9773 40.956M38.9761 40.956L36.2513 40.9609L36.25 40.2645M21.9772 2.46352L14.9776 4.26512L14.962 4.26837C14.9617 4.26843 14.9623 4.26831 14.962 4.26837C14.9598 4.27166 14.9561 4.27649 14.9528 4.28278C14.9215 4.34161 14.8741 4.49074 14.8741 4.79055V7.36242C14.8741 7.54223 14.8849 7.68214 14.9018 7.78755C14.902 7.78909 14.9022 7.79063 14.9025 7.79215C14.9712 7.77508 15.0519 7.7549 15.1449 7.73158C15.5009 7.64227 16.0311 7.50816 16.7375 7.32906L16.7715 7.32046L16.8061 7.3153C17.0129 7.2845 17.2436 7.31838 17.4495 7.4564C17.6404 7.58436 17.7484 7.76056 17.8102 7.90409C17.9265 8.17439 17.9534 8.50345 17.9534 8.81003V38.4139C17.9534 38.9858 18.009 39.3326 18.0757 39.5135L21.8936 39.5181C21.8941 39.5168 21.8947 39.5154 21.8952 39.514C21.9638 39.3375 22.0226 38.9932 22.0226 38.4189V2.99969C22.0226 2.81449 22.0118 2.6678 21.9943 2.55475C21.9889 2.51964 21.9831 2.48939 21.9772 2.46352ZM17.9285 39.5133C17.9282 39.5133 17.9288 39.5133 17.9285 39.5133ZM17.9285 40.9062L22.0217 40.9112C22.302 40.9112 22.5657 40.8154 22.7803 40.6311C22.9817 40.4581 23.1094 40.2349 23.1934 40.0188C23.3574 39.5971 23.4155 39.0435 23.4155 38.4189V2.99969C23.4155 2.54812 23.3669 2.11025 23.2042 1.76103C23.1186 1.57721 22.9891 1.39148 22.7936 1.25225C22.5914 1.10827 22.3613 1.04467 22.132 1.04467C21.9925 1.04467 21.8487 1.05707 21.716 1.09247L14.6588 2.90888C14.2415 3.00151 13.9197 3.25945 13.7233 3.62809C13.5408 3.97096 13.4812 4.37899 13.4812 4.79055V7.36242C13.4812 7.80175 13.5289 8.2381 13.7001 8.58265C13.7913 8.76637 13.9318 8.95225 14.1447 9.08199C14.3617 9.21431 14.5988 9.25441 14.8214 9.23554C14.8406 9.234 14.8541 9.23216 14.8584 9.23158C14.8722 9.22972 14.8841 9.2277 14.8901 9.22663C14.9027 9.2244 14.9136 9.22216 14.9199 9.22082C14.9336 9.21795 14.9484 9.21458 14.962 9.21143C14.9902 9.20488 15.0283 9.19571 15.0748 9.18435C15.1685 9.16144 15.3051 9.12744 15.4838 9.0826C15.7479 9.01635 16.1067 8.92574 16.5605 8.81084V38.4139C16.5605 39.0369 16.616 39.5871 16.7725 40.0055C16.8526 40.2193 16.9751 40.4431 17.1717 40.618C17.3825 40.8056 17.6456 40.906 17.9285 40.9062ZM54.2041 13.9446C54.2012 13.9472 54.1956 13.9526 54.1878 13.9625C54.1879 13.9625 54.1789 13.9744 54.1642 14.0052C54.1487 14.0375 54.1299 14.0843 54.1099 14.149C54.0692 14.2799 54.03 14.4622 53.9986 14.7049L53.9977 14.7114L51.2725 33.0532C51.2692 33.1726 51.2536 33.3203 51.1993 33.4633C51.1379 33.6252 50.9298 33.9865 50.4674 33.9865C50.166 33.9865 49.9881 33.8005 49.9567 33.7676L49.9557 33.7666C49.8995 33.7079 49.8645 33.6514 49.8491 33.6255C49.8152 33.5683 49.7904 33.5112 49.7754 33.4749C49.7423 33.395 49.707 33.2932 49.6709 33.1823L49.657 33.1399L46.1649 14.6566L46.1635 14.6482C46.1255 14.4153 46.0821 14.2454 46.0394 14.1276C46.0023 14.0254 45.9755 13.9895 45.9747 13.9877C45.9496 13.9625 45.9278 13.9488 45.8609 13.9488H42.9227C42.9154 14.021 42.911 14.1099 42.911 14.2174C42.911 14.3063 42.9237 14.4551 42.9544 14.6799L48.2018 36.4895L48.2039 36.4991C48.3835 37.3499 48.5194 38.0291 48.6107 38.5345C48.6971 39.0127 48.7561 39.3985 48.7561 39.6178C48.7561 40.8941 48.599 41.9582 48.2367 42.76C47.9133 43.4756 47.3842 44.1745 46.5325 44.1745C46.3573 44.1745 46.1477 44.1353 45.9443 44.088C45.7262 44.0372 45.4583 43.963 45.143 43.8665C44.8931 43.7927 44.6938 43.7349 44.5445 43.6927C44.4797 43.9259 44.4332 44.3199 44.4332 44.9157C44.4332 45.2277 44.45 45.4522 44.476 45.6028C44.4862 45.662 44.4963 45.7007 44.5034 45.7233L44.529 45.7614C44.8563 46.2492 45.5443 46.6071 46.8956 46.6071H47.1565C47.9775 46.5883 48.5563 46.4061 48.9592 46.1193L48.9604 46.1184L48.9616 46.1176C49.3562 45.8393 49.7905 45.2464 50.2212 44.1983C50.6416 43.1755 51.044 41.659 51.4138 39.6227L51.4145 39.6192L56.1824 14.7952C56.2141 14.5656 56.228 14.3999 56.228 14.2921C56.228 14.1462 56.2201 14.0314 56.2077 13.9438H54.2183C54.2115 13.9438 54.2069 13.9442 54.2041 13.9446ZM53.0946 13.0994C53.3729 12.7468 53.7666 12.5509 54.2183 12.5509H56.4668C56.6859 12.5509 56.9028 12.6173 57.0884 12.7587C57.2648 12.8931 57.3761 13.0669 57.4471 13.2284C57.5822 13.5361 57.6209 13.9136 57.6209 14.2921C57.6209 14.4999 57.5957 14.7465 57.5595 15.0055L57.557 15.0229L52.7843 39.8716C52.7841 39.8727 52.7839 39.8739 52.7837 39.8751C52.4074 41.9461 51.9844 43.5724 51.5096 44.7278C51.045 45.8582 50.4847 46.7474 49.7654 47.2552C49.0653 47.7528 48.1844 47.978 47.1794 47.9998L47.1718 48H46.8956C45.3678 48 44.1062 47.6003 43.3945 46.57C43.2122 46.3424 43.1406 46.0558 43.1033 45.8392C43.0583 45.5782 43.0403 45.2654 43.0403 44.9157C43.0403 44.2346 43.0932 43.6499 43.2345 43.2128C43.3669 42.8033 43.6896 42.2344 44.3785 42.2344C44.438 42.2344 44.486 42.2423 44.497 42.244C44.5171 42.2472 44.535 42.2507 44.5478 42.2534C44.574 42.2589 44.6017 42.2656 44.6278 42.2721C44.6811 42.2854 44.7505 42.3041 44.833 42.327C44.9993 42.3733 45.236 42.4416 45.5407 42.5315L45.5442 42.5326L45.5476 42.5336C45.8476 42.6256 46.0835 42.6903 46.26 42.7314C46.3482 42.7519 46.4163 42.7653 46.4668 42.7733C46.5134 42.7806 46.5333 42.7815 46.5338 42.7816C46.5375 42.7816 46.5418 42.781 46.5506 42.7772C46.5622 42.7721 46.5894 42.7576 46.6302 42.7193C46.7172 42.6378 46.8364 42.4762 46.9674 42.1864C47.212 41.6451 47.3633 40.8088 47.3633 39.6178C47.3633 39.5485 47.3327 39.2951 47.24 38.7821C47.1526 38.2982 47.0206 37.6374 46.843 36.7964L41.5842 14.9395L41.5795 14.906C41.544 14.6518 41.5181 14.4128 41.5181 14.2174C41.5181 13.8688 41.5515 13.5162 41.6725 13.2262C41.7358 13.0744 41.8378 12.9039 42.0058 12.7693C42.1848 12.626 42.3987 12.5559 42.6175 12.5559H45.8609C46.2885 12.5559 46.6758 12.7101 46.9775 13.021C47.1555 13.2044 47.2698 13.4345 47.349 13.6531C47.4298 13.8763 47.4904 14.1336 47.5368 14.4147L50.3899 29.516L52.6181 14.5194C52.6899 13.9692 52.8204 13.4466 53.0946 13.0994Z" fill="#151715"/>
<path d="M4.4473 40.2595C3.99959 40.2595 3.77573 39.6626 3.77573 38.4637V8.85978C3.77573 8.2877 3.66131 8.01907 3.42751 8.05389C2.01472 8.41206 1.30335 8.59115 1.28345 8.59115C0.890455 8.62597 0.696445 8.23298 0.696445 7.41217V4.84029C0.696445 4.12892 0.910353 3.72598 1.33817 3.63644L8.41704 1.81076C8.47176 1.79584 8.55135 1.78589 8.65582 1.78589C9.04881 1.78589 9.24282 2.20375 9.24282 3.04446V38.4637C9.24282 39.6626 9.00902 40.2595 8.54638 40.2595H4.4473Z" fill="#151715"/>
<path fill-rule="evenodd" clip-rule="evenodd" d="M8.50101 2.50834L1.49655 4.31483L1.48085 4.31811C1.48055 4.31818 1.48113 4.31805 1.48085 4.31811C1.47865 4.32141 1.47495 4.32623 1.4716 4.33253C1.44027 4.39135 1.39289 4.54048 1.39289 4.84029V7.41217C1.39289 7.59198 1.40366 7.73188 1.42056 7.83729C1.42081 7.83884 1.42106 7.84038 1.42131 7.8419C1.48997 7.82483 1.57071 7.80465 1.66368 7.78132C2.01966 7.69202 2.54992 7.5579 3.25636 7.3788L3.29029 7.3702L3.32491 7.36505C3.53172 7.33425 3.76236 7.36813 3.9683 7.50615C4.15921 7.6341 4.26717 7.81031 4.32897 7.95383C4.44535 8.22413 4.47217 8.55319 4.47217 8.85978V38.4637C4.47217 39.0354 4.52778 39.3821 4.5944 39.5631H8.41731C8.41786 39.5617 8.41842 39.5603 8.41898 39.5588C8.4876 39.3823 8.54638 39.038 8.54638 38.4637V3.04446C8.54638 2.85926 8.53557 2.71257 8.5181 2.59952C8.51267 2.56443 8.50685 2.5342 8.50101 2.50834ZM8.23956 1.1373C8.37229 1.10186 8.51618 1.08944 8.65582 1.08944C8.88511 1.08944 9.11517 1.15305 9.31734 1.29702C9.51284 1.43625 9.64235 1.62198 9.72799 1.8058C9.89069 2.15502 9.93927 2.59289 9.93927 3.04446V38.4637C9.93927 39.0883 9.88114 39.6419 9.71721 40.0635C9.63316 40.2797 9.5055 40.5029 9.30412 40.6758C9.08946 40.8602 8.82668 40.956 8.54638 40.956H4.4473C4.16411 40.956 3.90157 40.8556 3.69053 40.6678C3.49392 40.4929 3.37137 40.2691 3.29135 40.0553C3.13478 39.6369 3.07928 39.0866 3.07928 38.4637V8.86058C2.62551 8.97549 2.2667 9.0661 2.00261 9.13235C1.82389 9.17718 1.68727 9.21118 1.59358 9.23409C1.54709 9.24546 1.50897 9.25463 1.48078 9.26117C1.46719 9.26433 1.45238 9.26769 1.43871 9.27057C1.43237 9.2719 1.42149 9.27415 1.40893 9.27637C1.40286 9.27745 1.39172 9.27936 1.37794 9.28122C1.37369 9.2818 1.35944 9.28375 1.34018 9.28529C1.11761 9.30416 0.88055 9.26406 0.663461 9.13173C0.450613 9.002 0.310144 8.81612 0.218867 8.6324C0.0476813 8.28785 0 7.8515 0 7.41217V4.84029C0 4.42874 0.0595731 4.02071 0.242155 3.67784C0.438431 3.30925 0.760215 3.05133 1.17741 2.95867L8.23956 1.1373Z" fill="#151715"/>
</svg>
