<svg width="174" height="48" viewBox="0 0 87 24" fill="none" xmlns="http://www.w3.org/2000/svg">
<path d="M25.9835 18.4155H24.3526V6.00282H31.7595V7.52783H25.9837V11.6031H31.1934V13.0929H25.9837V18.4155L25.9835 18.4155ZM34.8261 7.78921C34.4373 8.1712 33.8268 8.2312 33.3681 7.93254C32.9094 7.63387 32.7304 7.05974 32.9406 6.56148C33.1508 6.06321 33.6915 5.77959 34.232 5.8842C34.7726 5.98881 35.1622 6.4525 35.1626 6.9915C35.1678 7.2917 35.0455 7.58058 34.8248 7.78921H34.8261ZM34.8261 18.4155H33.1952V9.92098H34.8261V18.4155ZM38.405 18.4155H36.7741V9.92098H38.333V11.3079H38.4036C38.5919 10.8191 38.9536 10.4129 39.4226 10.1634C39.8705 9.88216 40.3885 9.72618 40.9206 9.71242C41.3383 9.70081 41.7541 9.77174 42.1431 9.92098L41.5228 11.4108C41.2431 11.3197 40.9492 11.2784 40.6548 11.2889C40.0567 11.2918 39.4876 11.5405 39.0862 11.9742C38.6311 12.431 38.4036 13.0292 38.4036 13.7687L38.405 18.4155ZM46.6122 18.6863C45.3006 18.6863 44.2345 18.2588 43.414 17.4039C42.5935 16.549 42.1828 15.4703 42.1818 14.1683C42.1577 12.9961 42.5847 11.8577 43.378 10.9788C44.1379 10.104 45.2619 9.61303 46.4349 9.64326C47.7225 9.64326 48.7534 10.0536 49.5278 10.8744C50.3022 11.6951 50.689 12.793 50.6878 14.1682L50.6698 14.4634H43.8098C43.8569 15.3184 44.1494 15.9956 44.6875 16.4949C45.1908 16.9781 45.8695 17.2461 46.5744 17.2399C47.7438 17.2399 48.5353 16.7544 48.9488 15.7839L50.4025 16.3731C50.1079 17.0447 49.622 17.6192 49.0028 18.0281C48.3521 18.4669 47.5551 18.6863 46.6118 18.6863L46.6122 18.6863ZM48.9519 13.1335C48.9168 12.6477 48.6893 12.1855 48.2694 11.7466C47.8494 11.3078 47.225 11.0929 46.3962 11.102C45.8213 11.0921 45.2629 11.2898 44.8276 11.6572C44.3715 12.0482 44.0524 12.5693 43.9152 13.147L48.9519 13.1335ZM56.5804 18.6863C55.9633 18.6983 55.353 18.5586 54.8055 18.28C54.3246 18.0428 53.9177 17.6835 53.6273 17.2399H53.5567V18.4155H51.9964V6.00282H53.6273V9.92098L53.5567 11.0993H53.6273C53.9177 10.6556 54.3246 10.2964 54.8055 10.0591C55.3522 9.77733 55.9625 9.63436 56.5804 9.64335C57.7027 9.64335 58.6719 10.0767 59.4878 10.9435C60.3037 11.8103 60.7112 12.8852 60.7103 14.1682C60.7094 15.4513 60.3028 16.5262 59.4878 17.3929C58.6728 18.2597 57.7036 18.6909 56.5804 18.6863ZM56.3145 17.2304C57.0575 17.2362 57.7673 16.9299 58.2639 16.3893C58.8075 15.8286 59.0793 15.086 59.0793 14.1614C59.0793 13.2368 58.8075 12.4942 58.2639 11.9335C57.7616 11.3994 57.0541 11.0948 56.3122 11.0932C55.5703 11.0917 54.8615 11.3934 54.3569 11.9254C53.8197 12.4797 53.5511 13.2251 53.5511 14.1614C53.5511 15.0977 53.8225 15.8453 54.3651 16.4042C54.8648 16.9428 55.5766 17.246 56.32 17.2371L56.3145 17.2304ZM64.8623 18.6863C63.9393 18.6863 63.1686 18.4263 62.5502 17.9062C61.9318 17.3862 61.6217 16.6986 61.6199 15.8436C61.6199 14.919 61.9863 14.194 62.7191 13.6685C63.452 13.1429 64.3556 12.8802 65.4299 12.8802C66.3871 12.8802 67.1718 13.0536 67.7835 13.4003V13.1579C67.8069 12.5869 67.5658 12.0361 67.1273 11.6586C66.6808 11.2824 66.1062 11.0838 65.5172 11.102C65.0664 11.0965 64.6225 11.21 64.2324 11.4311C63.867 11.6291 63.5868 11.9493 63.4432 12.3331L61.955 11.7087C62.1562 11.1986 62.5521 10.7254 63.1447 10.2894C63.7373 9.85327 64.5153 9.63656 65.4845 9.63927C66.592 9.63927 67.515 9.9553 68.2534 10.5873C68.9918 11.2193 69.3582 12.115 69.3527 13.2743V18.4155H67.7882V17.2372H67.7176C67.067 18.2033 66.1158 18.6845 64.8642 18.6845L64.8623 18.6863ZM65.1281 17.2304C65.8135 17.228 66.4713 16.9665 66.9639 16.5004C67.489 16.0674 67.7928 15.4305 67.7946 14.7587C67.3331 14.3885 66.6409 14.2034 65.7179 14.2034C64.926 14.2034 64.3292 14.3709 63.9278 14.7058C63.5531 14.9876 63.3312 15.4218 63.3255 15.8841C63.3179 16.2864 63.5286 16.6628 63.8795 16.8728C64.2483 17.1154 64.6839 17.2424 65.1283 17.2371V17.2303L65.1281 17.2304ZM74.148 18.6863C73.1788 18.6863 72.3786 18.4552 71.7473 17.9929C71.1331 17.5491 70.6544 16.9497 70.3628 16.2593L71.8165 15.6702C72.278 16.7338 73.0626 17.2656 74.1702 17.2656C74.6101 17.2832 75.0451 17.1684 75.4162 16.9365C75.7222 16.7506 75.907 16.4221 75.9035 16.0697C75.9035 15.5153 75.5076 15.1397 74.7138 14.9429L72.9597 14.5271C72.3824 14.3777 71.8447 14.1089 71.3827 13.7389C70.891 13.3637 70.6138 12.7801 70.6379 12.1705C70.6379 11.4194 70.9775 10.8099 71.6569 10.3421C72.3675 9.86498 73.2139 9.61944 74.0755 9.64059C74.795 9.62934 75.5043 9.80657 76.1301 10.1539C76.7209 10.482 77.1776 10.9996 77.4232 11.6193L76.0069 12.1854C75.6884 11.4343 75.0267 11.0586 74.0215 11.0586C73.594 11.0447 73.1709 11.1469 72.799 11.3538C72.4944 11.5082 72.3033 11.8159 72.3034 12.1516C72.3034 12.6373 72.6873 12.9669 73.4553 13.1402L75.1734 13.5398C75.9884 13.7204 76.5911 14.0364 76.9815 14.4878C77.3597 14.9095 77.5675 15.4518 77.5658 16.0128C77.5733 16.7607 77.2185 17.468 76.6091 17.9197C75.9713 18.4308 75.1503 18.6863 74.1462 18.6863L74.148 18.6863ZM82.92 18.6863C81.6084 18.6863 80.5424 18.2588 79.7219 17.4039C78.9013 16.549 78.4905 15.4679 78.4896 14.1614C78.4655 12.9892 78.8925 11.8508 79.6858 10.9719C80.4485 10.0993 81.5737 9.61096 82.7469 9.64334C84.0389 9.64334 85.0701 10.0537 85.8398 10.8744C86.6095 11.6952 86.9963 12.7931 87 14.1682L86.982 14.4635H80.1162C80.1633 15.3185 80.4559 15.9957 80.994 16.495C81.4986 16.9782 82.1791 17.2452 82.8852 17.2372C84.0546 17.2372 84.846 16.7517 85.2595 15.7812L86.7133 16.3704C86.4188 17.042 85.9329 17.6166 85.3136 18.0254C84.6629 18.466 83.8649 18.6863 82.9198 18.6863L82.92 18.6863ZM85.2598 13.1335C85.2247 12.6477 84.9972 12.1855 84.5772 11.7466C84.1573 11.3078 83.5338 11.0929 82.7068 11.102C82.1319 11.0922 81.5736 11.2899 81.1382 11.6572C80.6821 12.0482 80.363 12.5693 80.2258 13.147L85.2598 13.1335Z" fill="#1E231E"/>
<path d="M15.3713 5.36321C15.3367 5.16211 15.1915 4.9968 14.995 4.93488C14.7984 4.87295 14.5832 4.92443 14.4372 5.06862L11.5716 7.90828L9.31854 3.66788C9.22311 3.48859 9.03504 3.37632 8.83013 3.37632C8.62521 3.37632 8.43714 3.48859 8.34172 3.66788L7.10965 5.98654L4.0191 0.288105C3.90701 0.0811368 3.67356 -0.0317732 3.43947 0.00785429C3.20539 0.0474818 3.02318 0.230633 2.98709 0.462701L0 19.3651L7.98852 23.7923C8.49016 24.0692 9.10111 24.0692 9.60277 23.7923L17.6603 19.3651L15.3713 5.36321Z" fill="#1E231E"/>
</svg>
