<svg width="184" height="48" viewBox="0 0 92 24" fill="none" xmlns="http://www.w3.org/2000/svg">
<path d="M56.9689 10.2857V18.8571H54.541V17.7428C53.6739 19.0285 52.5467 19.1142 51.853 19.1142C49.1649 19.1142 47.4307 17.0571 47.4307 14.5714C47.4307 12 49.1649 10.0285 51.6795 10.0285C52.3732 10.0285 53.6739 10.1142 54.4543 11.4V10.2857H56.9689ZM50.032 14.5714C50.032 15.9428 50.9859 16.9714 52.4599 16.9714C53.8473 16.9714 54.8878 15.9428 54.8878 14.5714C54.8878 13.2 53.934 12.1714 52.4599 12.1714C51.0726 12.1714 50.032 13.2 50.032 14.5714ZM61.738 12.3428V18.8571H59.3101V12.3428H58.3563V10.2857H59.3101V7.37139H61.738V10.2857H63.3855V12.3428H61.738ZM69.1084 12.3428C68.5014 11.8285 67.9811 11.7428 67.721 11.7428C67.114 11.7428 66.7672 12 66.7672 12.4285C66.7672 12.6857 66.8539 12.9428 67.5476 13.2L68.1546 13.3714C68.8483 13.6285 69.8888 13.8857 70.3223 14.5714C70.5825 14.9142 70.7559 15.4285 70.7559 16.0285C70.7559 16.8 70.4958 17.5714 69.8021 18.1714C69.1084 18.7714 68.2413 19.1142 67.2007 19.1142C65.3798 19.1142 64.426 18.2571 63.819 17.6571L65.1197 16.2C65.64 16.7142 66.3337 17.2285 67.0273 17.2285C67.721 17.2285 68.2413 16.8857 68.2413 16.2857C68.2413 15.7714 67.8077 15.5142 67.4609 15.4285L66.9406 15.2571C66.3336 15 65.64 14.7428 65.1197 14.2285C64.6861 13.8 64.426 13.2857 64.426 12.6C64.426 11.7428 64.8596 11.0571 65.2931 10.6285C65.9868 10.1142 66.8539 10.0285 67.5476 10.0285C68.1546 10.0285 69.1951 10.1142 70.3223 10.9714L69.1084 12.3428ZM74.3977 11.4C75.2648 10.2 76.4788 10.0285 77.1725 10.0285C79.6871 10.0285 81.4213 12 81.4213 14.5714C81.4213 17.1428 79.6871 19.1142 77.0858 19.1142C76.5655 19.1142 75.2648 19.0285 74.311 17.7428V18.8571H71.9698V4.45711H74.3977V11.4ZM74.1376 14.5714C74.1376 15.9428 75.0914 16.9714 76.5655 16.9714C77.9529 16.9714 78.9934 15.9428 78.9934 14.5714C78.9934 13.2 78.0396 12.1714 76.5655 12.1714C75.0914 12.1714 74.1376 13.2 74.1376 14.5714ZM85.41 17.5714L81.2479 10.2857H84.1093L86.7974 15.1714L89.2253 10.2857H92L85.0632 23.4H82.2884L85.41 17.5714ZM46.8237 11.7428H40.754V14.1428H43.9623C43.442 15.7714 42.2281 16.8857 39.9736 16.8857C37.459 16.8857 35.6381 14.8285 35.6381 12.3428C35.6381 9.85711 37.3723 7.71425 39.8869 7.71425C41.2743 7.71425 42.6616 8.39996 43.5287 9.51425L45.5231 8.22854C44.2224 6.42854 42.1414 5.39996 39.8869 5.39996C36.0716 5.39996 32.95 8.48568 32.95 12.3428C32.95 16.2 35.8982 19.2857 39.8869 19.2857C43.8756 19.2857 46.8237 16.2 46.8237 12.3428C46.9105 12.0857 46.8237 11.9142 46.8237 11.7428Z" fill="#1E231E"/>
<path fill-rule="evenodd" clip-rule="evenodd" d="M0 12C0 5.4 5.46277 0 12.1395 0C18.8162 0 24.279 5.4 24.279 12C24.279 18.6 18.8162 24 12.1395 24C5.46277 24 0 18.6 0 12ZM2.60132 12.1714C2.60132 14.4857 3.55514 16.8857 5.37606 18.6857C7.19698 20.4857 9.62488 21.3429 12.0528 21.4286L11.9653 21.3428C11.9655 21.3428 11.9658 21.3428 11.9661 21.3428L2.60134 12.0857C2.60134 12.1144 2.60147 12.1431 2.60175 12.1718L2.60132 12.1714ZM2.86145 9.94286L14.3073 21.2571C18.4694 20.2286 21.6777 16.4571 21.6777 12H15.6079L15.6079 13.7143H19.77C19.1631 16.2857 17.2554 18.4286 14.7408 19.2857L4.7691 9.42856C4.76915 9.42842 4.7692 9.42828 4.76925 9.42815C5.89659 6.42837 8.75793 4.28571 12.1395 4.28571C14.7408 4.28571 17.082 5.57143 18.5561 7.54286L19.8567 6.42857C18.1225 4.11429 15.3478 2.57142 12.1395 2.57142C11.0123 2.57142 9.92837 2.76964 8.92171 3.13259C7.46778 3.6568 6.17495 4.52465 5.14527 5.63525C4.03619 6.8315 3.23241 8.30939 2.86145 9.94286Z" fill="#1E231E"/>
</svg>
