<svg width="176" height="48" viewBox="0 0 88 24" fill="none" xmlns="http://www.w3.org/2000/svg">
<path fill-rule="evenodd" clip-rule="evenodd" d="M31.9607 7.50481L32.0345 8.86258C32.8767 7.81244 33.9825 7.28737 35.3512 7.28737C37.723 7.28737 38.9302 8.68838 38.9722 11.4904V19.254H36.4149V11.6424C36.4149 10.8968 36.2588 10.3451 35.9467 9.98622C35.6345 9.62794 35.1237 9.4488 34.4147 9.4488C33.3828 9.4488 32.6138 9.93063 32.1095 10.893V19.254H29.5511V7.50481H31.9619H31.9607ZM46.5948 19.4714C44.974 19.4714 43.6593 18.9451 42.6526 17.8919C41.6453 16.8387 41.1417 15.4358 41.1417 13.6839V13.3584C41.1417 12.186 41.3608 11.1377 41.7996 10.2148C42.2378 9.2919 42.8543 8.57348 43.6473 8.05891C44.4403 7.54558 45.3246 7.28861 46.3007 7.28861C47.8512 7.28861 49.0501 7.79885 49.8953 8.81933C50.7417 9.84044 51.1643 11.2841 51.1643 13.1521V14.2164H43.7206C43.7986 15.1863 44.112 15.9535 44.663 16.5181C45.2141 17.0827 45.9075 17.365 46.7425 17.365C47.9143 17.365 48.8688 16.877 49.6059 15.8991L50.9848 17.2569C50.5286 17.9586 49.9199 18.5035 49.1587 18.8908C48.3969 19.2781 47.5427 19.4714 46.5954 19.4714H46.5948ZM46.2899 9.40618C45.5875 9.40618 45.0214 9.65945 44.5898 10.166C44.1576 10.6725 43.8827 11.3786 43.7632 12.2836H48.6376V12.0877C48.5812 11.2044 48.3531 10.5372 47.9533 10.0844C47.5529 9.63226 46.9988 9.40618 46.2899 9.40618ZM56.3539 4.64967V7.50543H58.3649V9.45992H56.3539V16.0183C56.3539 16.4668 56.4404 16.7905 56.612 16.99C56.7837 17.1889 57.0911 17.2884 57.5335 17.2884C57.8347 17.2875 58.1348 17.251 58.428 17.1797V19.2213C57.8457 19.388 57.2844 19.4708 56.7435 19.4708C54.7787 19.4708 53.796 18.3527 53.796 16.1159V9.4593H51.9207V7.50481H53.7948V4.64905H56.3527L56.3539 4.64967ZM63.0395 19.2546H60.481V2.57596H63.0395V19.2546ZM68.5454 19.2546H65.987V7.50543H68.5454V19.2546ZM65.8291 4.45385C65.8291 4.04924 65.9533 3.71258 66.2025 3.44448C66.4522 3.17701 66.8082 3.04296 67.271 3.04296C67.7344 3.04296 68.0922 3.17701 68.3455 3.44448C68.5977 3.71258 68.7237 4.04924 68.7237 4.45447C68.7237 4.85229 68.5977 5.18339 68.3455 5.44778C68.0922 5.71216 67.7344 5.84436 67.271 5.84436C66.8082 5.84436 66.4522 5.71216 66.2025 5.44778C65.9533 5.18401 65.8291 4.85229 65.8291 4.45447V4.45385ZM72.2301 19.2546V9.4593H70.4928V7.50481H72.2301V6.42996C72.2301 5.12656 72.5807 4.1209 73.2824 3.41113C73.9848 2.70197 74.9669 2.3474 76.2299 2.3474C76.6795 2.3474 77.1568 2.41226 77.6622 2.5426L77.5992 4.60581C77.2763 4.54415 76.9484 4.51519 76.6201 4.51933C75.3985 4.51933 74.788 5.16671 74.788 6.4627V7.50481H77.1039V9.4593H74.788V19.254H72.2301V19.2546ZM82.9575 15.476L85.2734 7.50543H88L83.4737 21.0355C82.7786 23.0116 81.5996 24 79.9362 24C79.564 24 79.1534 23.9345 78.7043 23.8042V21.7626L79.1888 21.7953C79.8341 21.7953 80.3204 21.6743 80.6469 21.4315C80.9729 21.1893 81.231 20.7823 81.4207 20.2102L81.7887 19.2003L77.7883 7.50543H80.5467L82.9575 15.476Z" fill="#1E231E"/>
<path d="M16.6632 8.21953L16.6548 8.21582C16.65 8.21397 16.6452 8.21212 16.641 8.20779C16.6341 8.20018 16.629 8.19104 16.6261 8.18108C16.6231 8.17112 16.6225 8.16061 16.6241 8.15034L17.0882 5.23096L19.2643 7.47084L17.0011 8.46168C16.9948 8.46429 16.9881 8.46555 16.9813 8.46539H16.9723C16.9693 8.46353 16.9663 8.46106 16.9603 8.45488C16.8761 8.35839 16.7754 8.27861 16.6632 8.21953ZM19.8196 8.04163L22.1463 10.4359C22.6296 10.9338 22.8715 11.1822 22.9597 11.47C22.9729 11.5126 22.9837 11.5553 22.9921 11.5991L17.4316 9.17577C17.4286 9.1745 17.4256 9.17327 17.4226 9.17207C17.4003 9.1628 17.3745 9.1523 17.3745 9.12883C17.3745 9.10535 17.4009 9.09423 17.4231 9.08497L17.4304 9.08188L19.8196 8.04163ZM22.8973 12.3676C22.7772 12.5998 22.5431 12.8408 22.1469 13.2491L19.5236 15.9479L16.1307 15.2209L16.1127 15.2172C16.0827 15.2122 16.0509 15.2067 16.0509 15.1789C16.038 15.0348 15.9964 14.8951 15.9288 14.7683C15.8611 14.6415 15.7688 14.5304 15.6577 14.4419C15.6439 14.4277 15.6475 14.4055 15.6517 14.3851C15.6517 14.382 15.6517 14.3789 15.6529 14.3764L16.291 10.3451L16.2934 10.3315C16.297 10.3007 16.3024 10.2648 16.3294 10.2648C16.4662 10.2473 16.5981 10.202 16.7177 10.1315C16.8373 10.0609 16.942 9.96663 17.0258 9.85404C17.0312 9.84786 17.0348 9.84107 17.042 9.83736C17.0612 9.82809 17.084 9.83736 17.1038 9.84601L22.8967 12.3676H22.8973ZM18.9203 16.5687L14.6065 21.0077L15.3449 16.3377L15.3461 16.3315C15.3467 16.3254 15.3479 16.3192 15.3497 16.3136C15.3557 16.2988 15.3713 16.2926 15.3863 16.2864L15.3935 16.2834C15.5552 16.2124 15.6982 16.1029 15.8107 15.964C15.8251 15.9467 15.8426 15.93 15.8648 15.9269C15.8705 15.926 15.8764 15.926 15.8822 15.9269L18.9197 16.5694L18.9203 16.5687ZM13.6935 21.9473L13.2072 22.4477L7.83153 14.453C7.82959 14.4501 7.82759 14.4472 7.82553 14.4444C7.81712 14.4326 7.80812 14.4209 7.80992 14.4073C7.80992 14.3974 7.81652 14.3888 7.82313 14.3814L7.82913 14.3733C7.84534 14.3486 7.85915 14.3239 7.87415 14.2974L7.88616 14.2757L7.88796 14.2739C7.89637 14.2591 7.90417 14.2448 7.91858 14.2368C7.93118 14.2306 7.94859 14.2331 7.9624 14.2362L13.918 15.5001C13.9346 15.5027 13.9504 15.5098 13.9636 15.5205C13.9714 15.5285 13.9732 15.5371 13.975 15.547C14.0166 15.7088 14.0939 15.8584 14.2009 15.9843C14.308 16.1103 14.4419 16.209 14.5921 16.2729C14.6089 16.2815 14.6017 16.3006 14.5939 16.321C14.59 16.33 14.587 16.3393 14.5849 16.3488C14.5099 16.8183 13.8664 20.857 13.6935 21.9473ZM12.6778 22.9919C12.3194 23.357 12.1081 23.5503 11.8692 23.6281C11.6336 23.7048 11.3808 23.7048 11.1452 23.6281C10.8655 23.5367 10.6235 23.2884 10.1403 22.7905L4.74178 17.2353L6.15189 14.9849C6.15849 14.9738 6.1651 14.9639 6.1759 14.9559C6.19091 14.9447 6.21252 14.9497 6.23053 14.9559C6.55419 15.0563 6.90169 15.0382 7.21382 14.9046C7.23003 14.8984 7.24624 14.8941 7.25885 14.9058C7.26515 14.9117 7.27079 14.9184 7.27565 14.9256L12.6778 22.9925V22.9919ZM4.22132 16.6997L2.9829 15.4253L5.42853 14.3517C5.43478 14.3489 5.44152 14.3474 5.44834 14.3474C5.46875 14.3474 5.48075 14.3684 5.49156 14.3875C5.51613 14.4265 5.54217 14.4644 5.5696 14.5012L5.5774 14.5111C5.5846 14.5216 5.5798 14.5321 5.5726 14.542L4.22192 16.6997H4.22132ZM2.43482 14.8613L0.868036 13.2491C0.601502 12.9748 0.408205 12.7759 0.273737 12.6048L5.03773 13.6216C5.04371 13.6227 5.04972 13.6237 5.05574 13.6247C5.08515 13.6296 5.11757 13.6352 5.11757 13.6636C5.11757 13.6945 5.08215 13.7087 5.05214 13.7204L5.03833 13.7266L2.43482 14.8613ZM0 11.7758C0.00542922 11.6719 0.0235819 11.5692 0.0540271 11.47C0.142872 11.1822 0.384193 10.9338 0.868036 10.4359L2.87304 8.37273C3.79621 9.75142 4.72187 11.1283 5.65004 12.5035C5.66625 12.5257 5.68425 12.5504 5.66564 12.569C5.578 12.6684 5.49036 12.7771 5.42853 12.8951C5.42182 12.9103 5.41149 12.9235 5.39851 12.9334C5.39071 12.9384 5.3823 12.9365 5.3733 12.9346H5.3721L0 11.7752V11.7758ZM3.40971 7.82048L6.10447 5.04626C6.35839 5.16054 7.28106 5.56145 8.10527 5.91973C8.72958 6.19153 9.29867 6.43862 9.47756 6.51893C9.49557 6.52634 9.51178 6.53375 9.51958 6.55228C9.52438 6.5634 9.52198 6.57761 9.51958 6.58935C9.4769 6.7896 9.48325 6.99762 9.53805 7.19473C9.59286 7.39183 9.69439 7.57183 9.83354 7.71855C9.85155 7.73709 9.83354 7.76365 9.81793 7.7865L9.80953 7.79948L7.07215 12.1625C7.06495 12.1748 7.05834 12.1853 7.04634 12.1934C7.03193 12.2026 7.01152 12.1983 6.99471 12.194C6.88825 12.1653 6.7788 12.1499 6.66875 12.1483C6.5703 12.1483 6.46345 12.1668 6.35539 12.1872H6.35479C6.34279 12.1891 6.33198 12.1915 6.32237 12.1841C6.31177 12.1752 6.30264 12.1645 6.29536 12.1526L3.40911 7.82048H3.40971ZM6.65014 4.48598L10.1403 0.894512C10.6235 0.397241 10.8655 0.148297 11.1452 0.0574905C11.3808 -0.0191635 11.6336 -0.0191635 11.8692 0.0574905C12.1489 0.148297 12.3908 0.397241 12.8741 0.894512L13.6304 1.67285L11.1482 5.62878C11.1421 5.6403 11.1337 5.65039 11.1236 5.65843C11.1086 5.66893 11.0876 5.66461 11.0696 5.65843C10.8739 5.59731 10.6666 5.58619 10.4658 5.62601C10.265 5.66584 10.0766 5.75541 9.91698 5.88699C9.90077 5.90429 9.87676 5.8944 9.85635 5.88514C9.53219 5.73997 7.01092 4.6435 6.65014 4.48598ZM14.1575 2.21521L16.4495 4.5737L15.8972 8.09351V8.10278C15.8967 8.1108 15.8951 8.11871 15.8924 8.12625C15.8864 8.13861 15.8744 8.14108 15.8624 8.14479C15.7443 8.18159 15.6331 8.2386 15.5334 8.31343C15.5291 8.31657 15.5251 8.32008 15.5214 8.32393C15.5148 8.33134 15.5082 8.33813 15.4974 8.33937C15.4886 8.33965 15.4798 8.33818 15.4716 8.33505L11.979 6.80802L11.9724 6.80493C11.9502 6.79567 11.9238 6.78455 11.9238 6.76107C11.9033 6.5608 11.8397 6.36773 11.7377 6.19585C11.7209 6.16744 11.7023 6.13779 11.7167 6.10875L14.1575 2.21521ZM11.7971 7.53138L15.0712 8.95833C15.0892 8.96698 15.109 8.97501 15.1168 8.99416C15.1199 9.00568 15.1199 9.01785 15.1168 9.02937C15.1072 9.07879 15.0988 9.135 15.0988 9.19183V9.28635C15.0988 9.30982 15.0754 9.3197 15.0538 9.32897L15.0472 9.33144C14.5285 9.55938 7.7655 12.5269 7.75529 12.5269C7.74509 12.5269 7.73428 12.5269 7.72408 12.5164C7.70607 12.4979 7.72408 12.472 7.74029 12.4485C7.74315 12.4444 7.74595 12.4403 7.74869 12.4361L10.4392 8.14911L10.444 8.1417C10.4597 8.11575 10.4777 8.08672 10.5065 8.08672L10.5335 8.09104C10.5947 8.09969 10.6487 8.10772 10.7034 8.10772C11.1116 8.10772 11.4898 7.90325 11.7179 7.55362C11.7233 7.54428 11.7302 7.53593 11.7383 7.52891C11.7545 7.51656 11.7785 7.52273 11.7971 7.53138ZM8.04764 13.2052L15.4193 9.97017C15.4193 9.97017 15.4301 9.97017 15.4404 9.98067C15.4806 10.0221 15.5148 10.0499 15.5478 10.0758L15.564 10.0863C15.579 10.095 15.594 10.1048 15.5952 10.1209C15.5952 10.1271 15.5952 10.1308 15.594 10.1363L14.9625 14.1281L14.9601 14.1442C14.9559 14.175 14.9517 14.2103 14.9235 14.2103C14.7551 14.222 14.5921 14.2757 14.4485 14.3669C14.3048 14.4581 14.185 14.5839 14.0993 14.7335L14.0963 14.7384C14.0879 14.7526 14.0801 14.7662 14.0663 14.7736C14.0537 14.7798 14.0375 14.7773 14.0242 14.7742L8.14549 13.5264C8.13949 13.5252 8.05424 13.2058 8.04764 13.2052Z" fill="#1E231E"/>
</svg>
