<svg width="120" height="72" viewBox="0 0 60 36" fill="none" xmlns="http://www.w3.org/2000/svg">
<path d="M14.1573 9.38917H25.4739V10.2838H15.1949V17.0165H24.8609V17.9111H15.1949V25.3029H25.5918V26.1976H14.1573V9.38917ZM26.4876 9.38917H27.6902L33.0184 16.781L38.4644 9.38917L45.872 0L33.7021 17.5579L39.9733 26.1976H38.7236L33.0184 18.3348L27.2896 26.1976H26.0634L32.3818 17.5579L26.4876 9.38917ZM40.4214 10.2838V9.38917H53.3173V10.2838H47.3764V26.1972H46.3388V10.2838H40.4214ZM0 9.38917H1.29681L19.1772 36L11.7879 26.1976L1.08433 10.6604L1.03721 26.1976H0V9.38917ZM53.2133 25.0328C53.0008 25.0328 52.8419 24.8695 52.8419 24.6587C52.8419 24.4474 53.0008 24.2841 53.2129 24.2841C53.4274 24.2841 53.5838 24.4474 53.5838 24.6587C53.5838 24.8695 53.4274 25.0328 53.2129 25.0328H53.2133ZM54.2322 24.0478H54.7876C54.7953 24.347 55.0151 24.5478 55.3376 24.5478C55.6984 24.5478 55.9028 24.3321 55.9028 23.9273V21.3647H56.4679V23.9297C56.4679 24.6587 56.0442 25.0784 55.3425 25.0784C54.6844 25.0784 54.2326 24.6712 54.2326 24.0478H54.2322ZM57.2069 24.0156H57.7671C57.8151 24.3595 58.1531 24.578 58.6402 24.578C59.094 24.578 59.4272 24.3442 59.4272 24.0228C59.4272 23.7467 59.2155 23.5806 58.7333 23.4677L58.264 23.3548C57.6059 23.2016 57.3052 22.8847 57.3052 22.3521C57.3052 21.7062 57.835 21.2764 58.6297 21.2764C59.3691 21.2764 59.9094 21.7062 59.9419 22.3166H59.3918C59.339 21.9828 59.0465 21.7739 58.6223 21.7739C58.1754 21.7739 57.8781 21.9876 57.8781 22.3142C57.8781 22.573 58.0698 22.7214 58.5443 22.8319L58.9453 22.9298C59.692 23.1032 60 23.4048 60 23.9499C60 24.6433 59.4597 25.0784 58.5972 25.0784C57.7899 25.0784 57.2471 24.6639 57.2069 24.0156Z" fill="#1E231E"/>
</svg>
