<svg width="150" height="48" viewBox="0 0 75 24" fill="none" xmlns="http://www.w3.org/2000/svg">
<path d="M13.5727 14.3984C14.9089 14.3984 15.9922 13.3246 15.9922 12C15.9922 10.6754 14.9089 9.60164 13.5727 9.60164C12.2364 9.60164 11.1532 10.6754 11.1532 12C11.1532 13.3246 12.2364 14.3984 13.5727 14.3984Z" fill="#1E231E"/>
<path d="M7.15447 8.32679C7.03278 7.94202 6.92513 7.56574 6.83171 7.19959C6.43742 7.28806 6.05565 7.38414 5.68775 7.48737C5.78151 7.85481 5.88846 8.23059 6.00831 8.61331C6.37491 8.51043 6.75747 8.41471 7.15447 8.32679Z" fill="#1E231E"/>
<path fill-rule="evenodd" clip-rule="evenodd" d="M21.4576 7.48737C21.0897 7.38414 20.7079 7.28806 20.3136 7.19959C19.1971 6.94906 17.9801 6.7596 16.6935 6.64169C16.1902 6.59556 15.6763 6.56038 15.1536 6.53677C15.4527 6.92808 15.7492 7.33679 16.0413 7.76157C16.4916 8.41634 16.9315 9.10931 17.3545 9.83563C17.7775 10.5619 18.163 11.2861 18.5099 12C18.163 12.7139 17.7775 13.438 17.3545 14.1644C16.9315 14.8907 16.4916 15.5837 16.0413 16.2384C15.2441 16.2976 14.4187 16.3287 13.5727 16.3287C12.7266 16.3287 11.9013 16.2976 11.1041 16.2384C10.6538 15.5837 10.2139 14.8907 9.79087 14.1644C9.36783 13.438 8.98237 12.7139 8.63547 12C8.41042 11.5368 8.2016 11.0779 8.00929 10.6255C7.67356 9.8357 7.38814 9.0656 7.15447 8.32679C6.75747 8.41471 6.37491 8.51043 6.00831 8.61331C5.88846 8.23059 5.78151 7.85481 5.68775 7.48737C5.15545 7.63674 4.6522 7.80108 4.18213 7.979C2.96804 8.43851 1.9449 8.99994 1.21493 9.65315C0.485019 10.3063 0 11.0984 0 12C0 12.9016 0.485019 13.6937 1.21493 14.3469C1.9449 15.0001 2.96804 15.5615 4.18213 16.021C4.6522 16.1989 5.15545 16.3633 5.68775 16.5126C5.55209 17.0443 5.44405 17.5585 5.36445 18.051C5.15886 19.323 5.13778 20.482 5.34347 21.4353C5.54914 22.3885 5.99863 23.2009 6.78634 23.6517C7.57405 24.1025 8.50855 24.0822 9.44413 23.7821C10.3798 23.4821 11.3819 22.8845 12.3904 22.072C12.7808 21.7574 13.176 21.4075 13.5727 21.0253C13.9693 21.4075 14.3645 21.7574 14.755 22.072C15.7635 22.8845 16.7656 23.4821 17.7012 23.7821C18.6368 24.0822 19.5713 24.1025 20.359 23.6517C21.1467 23.2009 21.5962 22.3885 21.8019 21.4353C22.0076 20.482 21.9865 19.323 21.7809 18.051C21.7013 17.5585 21.5933 17.0443 21.4576 16.5126C21.9899 16.3633 22.4932 16.1989 22.9632 16.021C24.1773 15.5615 25.2005 15.0001 25.9304 14.3469C26.6603 13.6937 27.1454 12.9016 27.1454 12C27.1454 11.0984 26.6603 10.3063 25.9304 9.65315C25.2005 8.99994 24.1773 8.43851 22.9632 7.979C22.4932 7.80108 21.9899 7.63674 21.4576 7.48737ZM6.00831 8.61331C6.34773 9.69713 6.7907 10.8366 7.33095 12C6.7907 13.1634 6.34773 14.3029 6.00831 15.3867C5.509 15.2465 5.03931 15.0931 4.60312 14.928C3.46782 14.4983 2.58971 14.001 2.00578 13.4784C1.42178 12.9558 1.18023 12.4553 1.18023 12C1.18023 11.5447 1.42178 11.0442 2.00578 10.5216C2.58971 9.99905 3.46782 9.50166 4.60312 9.07197C5.03931 8.90688 5.509 8.75345 6.00831 8.61331ZM18.3766 14.7493C18.6438 14.2906 18.8971 13.8316 19.1361 13.3745C19.4718 14.1643 19.7572 14.9344 19.9909 15.6732C19.2286 15.842 18.4131 15.982 17.5552 16.0887C17.8351 15.655 18.1094 15.2081 18.3766 14.7493ZM13.5727 17.4987C14.1071 17.4987 14.6347 17.4867 15.1536 17.4632C14.6314 18.1463 14.1013 18.7764 13.5727 19.3464C13.0441 18.7764 12.514 18.1463 11.9918 17.4632C12.5107 17.4867 13.0383 17.4987 13.5727 17.4987ZM16.6935 17.3583C15.9473 18.4038 15.1732 19.3538 14.3961 20.1871C14.7682 20.5457 15.1371 20.8722 15.4994 21.1641C16.4424 21.9239 17.316 22.429 18.0645 22.669C18.8131 22.9091 19.3712 22.8661 19.7689 22.6385C20.1666 22.4109 20.4832 21.9532 20.6478 21.1906C20.8123 20.428 20.8078 19.4255 20.6155 18.236C20.5417 17.779 20.4409 17.2991 20.3136 16.8004C19.1971 17.0509 17.9801 17.2404 16.6935 17.3583ZM10.4518 17.3583C11.1981 18.4038 11.9721 19.3538 12.7493 20.1871C12.3772 20.5457 12.0083 20.8722 11.646 21.1641C10.7029 21.9239 9.82933 22.429 9.08085 22.669C8.3323 22.9091 7.77419 22.8661 7.37646 22.6385C6.97872 22.4109 6.66216 21.9532 6.4976 21.1906C6.33306 20.428 6.33757 19.4255 6.52982 18.236C6.60368 17.779 6.70449 17.2991 6.83171 16.8004C7.9483 17.0509 9.16529 17.2404 10.4518 17.3583ZM9.59017 16.0887C8.73228 15.982 7.91676 15.842 7.15447 15.6732C7.38813 14.9344 7.67356 14.1643 8.00929 13.3745C8.24827 13.8316 8.50154 14.2906 8.76875 14.7493C9.03597 15.2081 9.31025 15.655 9.59017 16.0887ZM21.137 8.61331C20.7976 9.69713 20.3547 10.8366 19.8144 12C20.3547 13.1634 20.7976 14.3029 21.137 15.3867C21.6364 15.2465 22.1061 15.0931 22.5422 14.928C23.6775 14.4983 24.5556 14.001 25.1396 13.4784C25.7236 12.9558 25.9651 12.4553 25.9651 12C25.9651 11.5447 25.7236 11.0442 25.1396 10.5216C24.5556 9.99905 23.6775 9.50166 22.5422 9.07197C22.1061 8.90688 21.6364 8.75345 21.137 8.61331ZM19.1361 10.6255C19.4718 9.8357 19.7572 9.0656 19.9909 8.32679C19.2286 8.15798 18.4131 8.01795 17.5552 7.91126C17.8351 8.345 18.1094 8.79188 18.3766 9.25066C18.6438 9.70944 18.8971 10.1683 19.1361 10.6255Z" fill="#1E231E"/>
<path d="M6.83171 7.19959C6.92513 7.56574 7.03278 7.94202 7.15447 8.32679C7.91676 8.15798 8.73228 8.01795 9.59016 7.91126C9.87215 7.4743 10.1599 7.05069 10.4518 6.64169C9.16529 6.7596 7.9483 6.94906 6.83171 7.19959Z" fill="#1E231E"/>
<path d="M15.1536 6.53677C14.6347 6.51335 14.1071 6.50132 13.5727 6.50132C13.0383 6.50132 12.5107 6.51335 11.9918 6.53677C11.6927 6.92808 11.3962 7.33679 11.1041 7.76157C11.9013 7.70241 12.7266 7.67125 13.5727 7.67125C14.4187 7.67125 15.2441 7.70241 16.0413 7.76157C15.7492 7.33679 15.4527 6.92808 15.1536 6.53677Z" fill="#1E231E"/>
<path d="M9.59016 7.91126C10.0816 7.85014 10.5869 7.79996 11.1041 7.76157C11.3962 7.33679 11.6927 6.92808 11.9918 6.53677C11.4691 6.56038 10.9551 6.59556 10.4518 6.64169C10.1599 7.05069 9.87215 7.4743 9.59016 7.91126Z" fill="#1E231E"/>
<path d="M8.76875 9.25066C8.50154 9.70944 8.24827 10.1683 8.00929 10.6255C8.2016 11.0779 8.41042 11.5368 8.63547 12C8.98237 11.2861 9.36783 10.5619 9.79087 9.83563C10.2139 9.10931 10.6538 8.41634 11.1041 7.76157C10.5869 7.79996 10.0816 7.85014 9.59016 7.91126C9.31025 8.345 9.03596 8.79188 8.76875 9.25066Z" fill="#1E231E"/>
<path d="M12.7493 3.8129C11.9721 4.64619 11.1981 5.5962 10.4518 6.64169C10.9551 6.59556 11.4691 6.56038 11.9918 6.53677C12.514 5.85366 13.0441 5.22358 13.5727 4.65358C13.2974 4.35673 13.0225 4.07617 12.7493 3.8129Z" fill="#1E231E"/>
<path d="M15.1536 6.53677C15.6763 6.56038 16.1902 6.59556 16.6935 6.64169C15.9473 5.5962 15.1732 4.64619 14.3961 3.8129C14.1229 4.07617 13.848 4.35673 13.5727 4.65358C14.1013 5.22358 14.6314 5.85366 15.1536 6.53677Z" fill="#1E231E"/>
<path d="M13.5727 2.97474C13.2985 3.23895 13.0237 3.51865 12.7493 3.8129C13.0225 4.07617 13.2974 4.35673 13.5727 4.65358C13.848 4.35673 14.1229 4.07617 14.3961 3.8129C14.1216 3.51865 13.8468 3.23895 13.5727 2.97474Z" fill="#1E231E"/>
<path d="M19.7689 1.3615C20.1666 1.58913 20.4832 2.04678 20.6478 2.80942C20.8123 3.57197 20.8078 4.57449 20.6155 5.76395C20.5417 6.22095 20.4409 6.70088 20.3136 7.19959C20.7079 7.28806 21.0897 7.38414 21.4576 7.48737C21.5933 6.95572 21.7013 6.44153 21.7809 5.94903C21.9865 4.67702 22.0076 3.51797 21.8019 2.56471C21.5962 1.61154 21.1467 0.79913 20.359 0.348315C19.5713 -0.102499 18.6368 -0.0821634 17.7012 0.217862C16.7656 0.517913 15.7635 1.11553 14.755 1.92803C14.3645 2.24261 13.9693 2.59246 13.5727 2.97474C13.8468 3.23895 14.1216 3.51865 14.3961 3.8129C14.7682 3.45433 15.1371 3.12783 15.4994 2.83592C16.4424 2.07615 17.316 1.57102 18.0645 1.33099C18.8131 1.09094 19.3712 1.13388 19.7689 1.3615Z" fill="#1E231E"/>
<path d="M7.37646 1.36151C7.77419 1.13388 8.3323 1.09094 9.08086 1.33099C9.82933 1.57102 10.7029 2.07615 11.646 2.83592C12.0083 3.12783 12.3772 3.45433 12.7493 3.8129C13.0237 3.51865 13.2985 3.23895 13.5727 2.97474C13.176 2.59246 12.7808 2.24261 12.3904 1.92803C11.3819 1.11553 10.3798 0.517914 9.44413 0.217862C8.50855 -0.0821631 7.57405 -0.102499 6.78634 0.348315C5.99863 0.79913 5.54915 1.61154 5.34347 2.56471C5.13778 3.51797 5.15886 4.67702 5.36445 5.94903C5.44405 6.44153 5.5521 6.95572 5.68775 7.48737C6.05565 7.38414 6.43742 7.28806 6.83171 7.19959C6.70449 6.70088 6.60368 6.22095 6.52982 5.76395C6.33757 4.57449 6.33306 3.57197 6.4976 2.80942C6.66216 2.04678 6.97872 1.58913 7.37646 1.36151Z" fill="#1E231E"/>
<path d="M34.9162 10.6944H37.1476C37.7054 10.6944 38.176 10.6368 38.5596 10.5216C38.9547 10.4064 39.2685 10.2567 39.5009 10.0723C39.7333 9.87649 39.9018 9.65185 40.0064 9.39841C40.111 9.13345 40.1633 8.85121 40.1633 8.55169C40.1633 8.26369 40.111 7.99297 40.0064 7.73953C39.9018 7.47457 39.7333 7.24417 39.5009 7.04833C39.2685 6.85249 38.9547 6.70273 38.5596 6.59905C38.176 6.48385 37.7054 6.42625 37.1476 6.42625H34.9162V10.6944ZM34.9162 17.52H33.6611V5.28577H37.4613C38.7164 5.28577 39.7043 5.55649 40.4248 6.09793C41.157 6.63937 41.523 7.45729 41.523 8.55169C41.523 9.40417 41.2499 10.1242 40.7037 10.7117C40.1691 11.2877 39.3905 11.6218 38.3678 11.7139L41.924 17.52H40.3899L37.0081 11.8349H34.9162V17.52Z" fill="#1E231E"/>
<path d="M49.9214 12.8544C49.9214 12.0826 49.689 11.4605 49.2241 10.9882C48.7592 10.5043 48.1084 10.2624 47.2717 10.2624C46.8998 10.2624 46.5395 10.3373 46.1909 10.4871C45.8423 10.6253 45.5343 10.8154 45.267 11.0573C45.0113 11.2992 44.8021 11.5757 44.6394 11.8867C44.4884 12.1978 44.4128 12.5203 44.4128 12.8544H49.9214ZM44.378 13.7875C44.4128 14.1907 44.5116 14.5709 44.6743 14.928C44.837 15.2851 45.052 15.5962 45.3193 15.8611C45.5866 16.1146 45.8945 16.3162 46.2432 16.4659C46.5918 16.6157 46.9695 16.6906 47.3763 16.6906C47.9922 16.6906 48.521 16.5523 48.9626 16.2759C49.4158 15.9879 49.7587 15.6595 49.9911 15.2909L50.8801 16.0167C50.392 16.6272 49.8517 17.065 49.259 17.3299C48.6779 17.5949 48.0503 17.7274 47.3763 17.7274C46.772 17.7274 46.2083 17.6237 45.6854 17.4163C45.174 17.1975 44.7324 16.8979 44.3605 16.5178C43.9886 16.1376 43.6923 15.6883 43.4715 15.1699C43.2623 14.6515 43.1577 14.0871 43.1577 13.4765C43.1577 12.8659 43.2623 12.3015 43.4715 11.7831C43.6807 11.2647 43.9712 10.8154 44.3431 10.4352C44.715 10.0551 45.1508 9.76129 45.6505 9.55393C46.1502 9.33505 46.6906 9.22561 47.2717 9.22561C47.8876 9.22561 48.4396 9.33505 48.9277 9.55393C49.4158 9.77281 49.8226 10.0666 50.148 10.4352C50.485 10.7923 50.7407 11.2186 50.915 11.7139C51.0893 12.1978 51.1765 12.7162 51.1765 13.2691V13.7875H44.378Z" fill="#1E231E"/>
<path d="M57.8995 13.4938C57.6089 13.4938 57.2428 13.5111 56.8012 13.5456C56.3712 13.5687 55.9529 13.6378 55.5461 13.753C55.151 13.8567 54.8081 14.0237 54.5176 14.2541C54.2387 14.4845 54.0992 14.8013 54.0992 15.2045C54.0992 15.4695 54.1515 15.6999 54.2561 15.8957C54.3723 16.08 54.5234 16.2355 54.7094 16.3623C54.8953 16.4775 55.0987 16.5638 55.3195 16.6214C55.5519 16.6675 55.7844 16.6906 56.0168 16.6906C56.4352 16.6906 56.7954 16.6215 57.0976 16.4832C57.4114 16.345 57.6728 16.1607 57.882 15.9303C58.0912 15.6883 58.2423 15.4119 58.3353 15.1008C58.4398 14.7783 58.4921 14.4384 58.4921 14.0813V13.4938H57.8995ZM58.4921 12.5607V12.3533C58.4921 10.9594 57.7949 10.2624 56.4003 10.2624C55.4473 10.2624 54.6164 10.5792 53.9075 11.2128L53.2102 10.4007C53.9772 9.61729 55.1277 9.22561 56.6618 9.22561C57.0569 9.22561 57.4346 9.28321 57.7949 9.39841C58.1667 9.51361 58.4863 9.69217 58.7536 9.93409C59.0209 10.1645 59.2359 10.4583 59.3986 10.8154C59.5613 11.1725 59.6427 11.5987 59.6427 12.0941V15.7056C59.6427 16.0167 59.6543 16.345 59.6775 16.6906C59.7124 17.0247 59.7473 17.3011 59.7821 17.52H58.6665C58.6316 17.3242 58.6025 17.1111 58.5793 16.8807C58.5677 16.6503 58.5619 16.4256 58.5619 16.2067H58.527C58.19 16.7482 57.7891 17.1399 57.3242 17.3818C56.871 17.6122 56.3131 17.7274 55.6507 17.7274C55.2904 17.7274 54.9418 17.6755 54.6048 17.5719C54.2678 17.4797 53.9656 17.3357 53.6983 17.1399C53.4426 16.9325 53.2334 16.6848 53.0707 16.3968C52.9197 16.0973 52.8441 15.7517 52.8441 15.36C52.8441 14.7034 53.0126 14.1907 53.3497 13.8221C53.6983 13.4419 54.1283 13.1597 54.6396 12.9754C55.1626 12.7911 55.7146 12.6759 56.2957 12.6298C56.8884 12.5837 57.4288 12.5607 57.9169 12.5607H58.4921Z" fill="#1E231E"/>
<path d="M68.2464 11.3338C68.0488 11.0343 67.7699 10.7808 67.4096 10.5735C67.061 10.3661 66.6601 10.2624 66.2068 10.2624C65.7304 10.2509 65.3004 10.3258 64.9169 10.4871C64.545 10.6483 64.2254 10.873 63.9581 11.161C63.6908 11.449 63.4874 11.7946 63.348 12.1978C63.2085 12.5895 63.1388 13.0157 63.1388 13.4765C63.1388 13.9373 63.2085 14.3693 63.348 14.7725C63.4874 15.1642 63.6908 15.504 63.9581 15.792C64.2254 16.08 64.545 16.3047 64.9169 16.4659C65.3004 16.6272 65.7304 16.7021 66.2068 16.6906C66.6601 16.6906 67.061 16.5869 67.4096 16.3795C67.7699 16.1722 68.0488 15.9187 68.2464 15.6192L69.1877 16.3277C68.781 16.8 68.3219 17.1514 67.8106 17.3818C67.2992 17.6007 66.7647 17.7159 66.2068 17.7274C65.5444 17.7389 64.9459 17.641 64.4113 17.4336C63.8767 17.2147 63.4177 16.9152 63.0342 16.5351C62.6623 16.1549 62.3776 15.7056 62.18 15.1872C61.9824 14.6573 61.8837 14.0871 61.8837 13.4765C61.8837 12.8659 61.9824 12.3015 62.18 11.7831C62.3776 11.2531 62.6623 10.7981 63.0342 10.4179C63.4177 10.0378 63.8767 9.74401 64.4113 9.53665C64.9459 9.31777 65.5444 9.21409 66.2068 9.22561C66.7647 9.23713 67.2992 9.35809 67.8106 9.58849C68.3219 9.80737 68.781 10.153 69.1877 10.6253L68.2464 11.3338Z" fill="#1E231E"/>
<path d="M74.9303 10.4698H72.5769V15.2391C72.5769 15.5386 72.606 15.7863 72.6641 15.9821C72.7222 16.1664 72.8035 16.3104 72.9081 16.4141C73.0127 16.5178 73.1348 16.5927 73.2742 16.6387C73.4253 16.6733 73.588 16.6906 73.7623 16.6906C73.9599 16.6906 74.1633 16.6618 74.3724 16.6042C74.5816 16.5466 74.7734 16.4717 74.9477 16.3795L75 17.4336C74.57 17.6295 74.0528 17.7274 73.4485 17.7274C73.2277 17.7274 72.9953 17.6986 72.7512 17.641C72.5188 17.5834 72.3038 17.4739 72.1063 17.3127C71.9087 17.1514 71.746 16.9325 71.6182 16.656C71.4903 16.3795 71.4264 16.0167 71.4264 15.5674V10.4698H69.7006V9.43297H71.4264V7.15201H72.5769V9.43297H74.9303V10.4698Z" fill="#1E231E"/>
</svg>
