<svg width="178" height="44" viewBox="0 0 89 22" fill="none" xmlns="http://www.w3.org/2000/svg">
<path d="M29.0198 17.0631C28.076 17.0873 27.1471 16.8222 26.355 16.3027C25.6158 15.8088 25.0672 15.0726 24.8012 14.2177L26.4191 13.6145C26.6437 14.1393 27.0107 14.589 27.4776 14.9114C27.9521 15.2331 28.5128 15.3998 29.0839 15.3889C29.6323 15.4181 30.1736 15.2527 30.6143 14.9212C30.806 14.7582 30.9574 14.5521 31.0565 14.3195C31.1556 14.0868 31.1997 13.834 31.1854 13.5811C31.1877 13.3456 31.1338 13.113 31.028 12.9031C30.9364 12.7153 30.8165 12.5429 30.6726 12.3922C30.4901 12.2242 30.2831 12.0857 30.0589 11.9815C29.7831 11.842 29.5558 11.7359 29.3733 11.6632C29.1907 11.5905 28.9226 11.4922 28.5711 11.3704C28.1283 11.2132 27.7942 11.0914 27.5767 11.001C27.278 10.8731 26.9879 10.7254 26.7085 10.5588C26.4067 10.3973 26.1325 10.1876 25.8966 9.93787C25.6934 9.6936 25.5295 9.41838 25.4111 9.12237C25.1823 8.55946 25.1342 7.93803 25.2736 7.34595C25.413 6.75388 25.7329 6.22113 26.188 5.82305C26.8509 5.23223 27.7502 4.93681 28.8857 4.93681C29.8361 4.93681 30.6169 5.14839 31.2281 5.57153C31.8231 5.97116 32.2598 6.57024 32.4614 7.26343L30.8727 7.79989C30.7107 7.43626 30.4386 7.13416 30.0958 6.93724C29.6844 6.70802 29.2191 6.59661 28.7498 6.61497C28.2883 6.58785 27.8311 6.71715 27.4504 6.98243C27.295 7.1045 27.1711 7.2628 27.0893 7.44381C27.0074 7.62481 26.9701 7.82317 26.9804 8.02194C26.9818 8.1742 27.0149 8.32444 27.0774 8.46292C27.14 8.60139 27.2307 8.72498 27.3436 8.82565C27.5639 9.04419 27.822 9.22002 28.105 9.34442C28.3691 9.45643 28.7731 9.60577 29.313 9.79638C29.6432 9.92018 29.8957 10.0106 30.0491 10.0735C30.2026 10.1363 30.4376 10.2366 30.7522 10.382C31 10.4932 31.2383 10.6247 31.465 10.775C31.668 10.923 31.8625 11.0824 32.0477 11.2525C32.2469 11.4279 32.4174 11.6342 32.5527 11.8636C32.6816 12.102 32.7814 12.3554 32.8499 12.6182C32.9347 12.9258 32.9765 13.244 32.9742 13.5634C32.9742 14.6586 32.6045 15.5153 31.8651 16.1337C31.1258 16.752 30.1773 17.0618 29.0198 17.0631ZM39.6283 16.8666L35.6564 5.14118H37.5093L40.141 13.3119C40.2863 13.7517 40.4082 14.199 40.5062 14.652C40.6025 14.1988 40.7238 13.7514 40.8694 13.3119L43.4681 5.14118H45.3054L41.3491 16.8627L39.6283 16.8666ZM48.8131 16.8666V5.14118H55.9994V6.782H50.5359V9.99682H54.0611V11.6376H50.5359V15.214H56.3626V16.8548L48.8131 16.8666ZM60.7462 16.8666V5.14118H62.469V15.1885H68.1287V16.8627L60.7462 16.8666ZM74.6158 6.81933V16.8627H72.895V6.8154H69.6184V5.14118H77.8885V6.8154L74.6158 6.81933ZM81.4525 16.8666V5.14118H88.6387V6.782H83.1733V9.99682H86.6984V11.6376H83.1733V15.214H89V16.8548L81.4525 16.8666Z" fill="#1E231E"/>
<path fill-rule="evenodd" clip-rule="evenodd" d="M8.05329 0.979226C10.9375 -0.879712 14.9269 -0.0131245 16.9468 2.91087V2.92659C17.4262 3.60558 17.7667 4.37456 17.9485 5.18845C18.1302 6.00234 18.1496 6.84475 18.0053 7.66629C17.8644 8.45039 17.5684 9.19762 17.1352 9.86322C17.768 11.0834 17.9806 12.4823 17.7392 13.8385C17.5945 14.6419 17.2863 15.4061 16.8343 16.0826C16.3822 16.7591 15.7962 17.3333 15.1133 17.7686L10.048 21.0208C7.16375 22.8797 3.17439 22.0131 1.15446 19.0891C0.674718 18.4103 0.333942 17.6414 0.152162 16.8274C-0.0296188 16.0135 -0.0487349 15.171 0.095938 14.3494C0.235303 13.5652 0.530668 12.8178 0.964119 12.1525C0.331677 10.9314 0.119801 9.53184 0.362025 8.17524C0.505671 7.37147 0.813384 6.60683 1.26552 5.93014C1.71765 5.25345 2.30427 4.67957 2.98793 4.24514L8.05329 0.979226ZM5.14641 19.2483C5.91884 19.5382 6.76057 19.5814 7.55802 19.3721C7.92207 19.273 8.26915 19.1186 8.58741 18.9142L13.6547 15.6483C14.0664 15.3862 14.4194 15.04 14.6913 14.6319C14.9632 14.2238 15.148 13.7629 15.2338 13.2784C15.3205 12.7845 15.3089 12.278 15.1995 11.7887C15.0901 11.2994 14.8852 10.8372 14.5967 10.4291C14.1276 9.74432 13.4619 9.22179 12.6897 8.9322C11.9175 8.64261 11.076 8.59993 10.2791 8.80992C9.91446 8.90727 9.56713 9.06176 9.24971 9.26778L7.30747 10.5136C7.21107 10.5746 7.10638 10.6209 6.99671 10.6512C6.75798 10.712 6.50659 10.698 6.27591 10.611C6.04523 10.5239 5.84617 10.368 5.70512 10.1638C5.61819 10.0405 5.55627 9.90087 5.52293 9.75315C5.4896 9.60542 5.48551 9.45248 5.5109 9.30315C5.53715 9.15742 5.59299 9.01878 5.67489 8.896C5.7568 8.77323 5.86299 8.66897 5.98675 8.58983L11.0541 5.32982C11.1501 5.26814 11.2549 5.22175 11.3648 5.19226C11.6024 5.12897 11.8535 5.14039 12.0846 5.22498C12.3156 5.30958 12.5158 5.46335 12.6583 5.66584C12.8137 5.88745 12.8866 6.15752 12.8642 6.42828L12.8467 6.62478L13.041 6.68177C13.7527 6.89982 14.4226 7.23871 15.022 7.68395L15.2804 7.88045L15.3775 7.58569C15.4274 7.42921 15.4676 7.26973 15.4979 7.10819C15.5849 6.61427 15.5734 6.10773 15.464 5.61839C15.3546 5.12905 15.1495 4.6668 14.8608 4.25886C14.3918 3.57392 13.7262 3.05117 12.9541 2.76125C12.1819 2.47132 11.3404 2.42819 10.5432 2.6377C10.1819 2.7365 9.83741 2.89021 9.52162 3.09359L4.4485 6.3595C4.03683 6.62164 3.68376 6.96781 3.41186 7.37588C3.13996 7.78395 2.95522 8.24493 2.86945 8.72935C2.78183 9.22288 2.79253 9.72916 2.90093 10.2184C3.00933 10.7077 3.21323 11.1702 3.50068 11.5787C3.96981 12.2619 4.63454 12.7834 5.40542 13.0729C6.1763 13.3624 7.01633 13.406 7.81245 13.1979C8.1758 13.0995 8.52224 12.9458 8.8399 12.742L10.7821 11.4942C10.8782 11.4325 10.983 11.3861 11.0929 11.3566C11.333 11.2936 11.5865 11.3065 11.8192 11.3936C12.0518 11.4808 12.2525 11.6379 12.3942 11.844C12.4816 11.9667 12.5438 12.106 12.5771 12.2535C12.6105 12.4009 12.6143 12.5537 12.5884 12.7027C12.5628 12.8489 12.5072 12.988 12.4252 13.1112C12.3433 13.2344 12.2368 13.3389 12.1126 13.418L7.05498 16.6839C6.95878 16.7452 6.85403 16.7916 6.74422 16.8214C6.50409 16.8845 6.25063 16.8716 6.01796 16.7844C5.7853 16.6973 5.58462 16.5401 5.44292 16.3341C5.28741 16.1146 5.21253 15.847 5.23122 15.5776L5.2487 15.381L5.05447 15.3241C4.3453 15.1078 3.67744 14.7716 3.07922 14.3297L2.81896 14.1332L2.72379 14.428C2.67227 14.5827 2.63202 14.741 2.60337 14.9016C2.51608 15.3954 2.5273 15.9018 2.63637 16.3912C2.74544 16.8805 2.95016 17.3428 3.23848 17.7509C3.70805 18.4358 4.37399 18.9584 5.14641 19.2483Z" fill="#1E231E"/>
</svg>
