<svg width="192" height="44" viewBox="0 0 96 22" fill="none" xmlns="http://www.w3.org/2000/svg">
<path d="M47.8913 5.5C44.1426 5.5 41.4397 7.975 41.4397 11.6875C41.4397 15.4 44.4822 17.875 48.2309 17.875C50.4958 17.875 52.4924 16.9675 53.7284 15.4378L51.1307 13.9184C50.4448 14.6781 49.4024 15.1216 48.2309 15.1216C46.6044 15.1216 45.2224 14.2622 44.7097 12.8872H54.2241C54.2988 12.5022 54.343 12.1034 54.343 11.6841C54.343 7.975 51.6401 5.5 47.8913 5.5V5.5ZM44.6791 10.4844C45.1036 9.11281 46.2649 8.25 47.8879 8.25C49.5144 8.25 50.6757 9.11281 51.0968 10.4844H44.6791V10.4844ZM84.455 5.5C80.7063 5.5 78.0034 7.975 78.0034 11.6875C78.0034 15.4 81.0458 17.875 84.7946 17.875C87.0594 17.875 89.056 16.9675 90.292 15.4378L87.6944 13.9184C87.0085 14.6781 85.966 15.1216 84.7946 15.1216C83.1681 15.1216 81.7861 14.2622 81.2733 12.8872H90.7878C90.8625 12.5022 90.9066 12.1034 90.9066 11.6841C90.9066 7.975 88.2037 5.5 84.455 5.5V5.5ZM81.2462 10.4844C81.6706 9.11281 82.8319 8.25 84.455 8.25C86.0815 8.25 87.2428 9.11281 87.6638 10.4844H81.2462ZM67.9932 11.6875C67.9932 13.75 69.3243 15.125 71.3888 15.125C72.7878 15.125 73.837 14.4822 74.3769 13.4338L76.9847 14.9566C75.9049 16.7784 73.8812 17.875 71.3888 17.875C67.6367 17.875 64.9372 15.4 64.9372 11.6875C64.9372 7.975 67.6401 5.5 71.3888 5.5C73.8812 5.5 75.9015 6.59656 76.9847 8.41844L74.3769 9.94125C73.837 8.89281 72.7878 8.25 71.3888 8.25C69.3277 8.25 67.9932 9.625 67.9932 11.6875ZM96 1.71875V17.5312H92.944V1.71875H96ZM12.5467 0L25.0934 22H0L12.5467 0ZM43.9151 1.71875L34.5059 18.2188L25.0968 1.71875H28.6248L34.5059 12.0312L40.3871 1.71875H43.9151ZM63.9185 5.84375V9.17469C63.5789 9.075 63.219 9.00625 62.8319 9.00625C60.8591 9.00625 59.4363 10.3813 59.4363 12.4438V17.5312H56.3803V5.84375H59.4363V9.00625C59.4363 7.26 61.4431 5.84375 63.9185 5.84375Z" fill="#1E231E"/>
</svg>
