<svg width="140" height="48" viewBox="0 0 70 24" fill="none" xmlns="http://www.w3.org/2000/svg">
<path d="M37.1931 18.9437C37.0433 18.9437 36.905 18.9091 36.7782 18.84C36.6514 18.7824 36.5649 18.6845 36.5188 18.5463L32.8879 6.81313C32.8764 6.77857 32.8707 6.73825 32.8707 6.69217C32.8707 6.54241 32.9398 6.42721 33.0781 6.34657C33.228 6.25441 33.3778 6.20833 33.5277 6.20833C33.7697 6.20833 33.9253 6.30625 33.9945 6.50209L37.1931 17.112L40.3745 6.50209C40.4321 6.30625 40.5762 6.20833 40.8067 6.20833C40.9566 6.20833 41.1064 6.26017 41.2563 6.36385C41.4177 6.45601 41.4983 6.57121 41.4983 6.70945C41.4983 6.72097 41.4926 6.73825 41.481 6.76129C41.4695 6.77281 41.4638 6.79009 41.4638 6.81313L37.8847 18.5463C37.8386 18.673 37.7464 18.7709 37.6081 18.84C37.4813 18.9091 37.343 18.9437 37.1931 18.9437Z" fill="#1E231E"/>
<path d="M45.4585 18.961C44.8476 18.961 44.2944 18.8112 43.7987 18.5117C43.3031 18.2006 42.9054 17.8032 42.6057 17.3194C42.306 16.824 42.1562 16.2883 42.1562 15.7123V11.0986C42.1562 10.9949 42.208 10.897 42.3118 10.8048C42.427 10.7127 42.5654 10.6666 42.7267 10.6666C42.8766 10.6666 43.0034 10.7127 43.1071 10.8048C43.2224 10.897 43.28 10.9949 43.28 11.0986V15.7123C43.28 16.0925 43.378 16.4496 43.5739 16.7837C43.7699 17.1178 44.0292 17.3943 44.352 17.6131C44.6863 17.8205 45.0551 17.9242 45.4585 17.9242C45.8504 17.9242 46.2078 17.8205 46.5305 17.6131C46.8648 17.4058 47.1241 17.1351 47.3086 16.801C47.5045 16.4554 47.6025 16.0925 47.6025 15.7123V11.0813C47.6025 10.9776 47.6601 10.8854 47.7754 10.8048C47.8907 10.7127 48.0232 10.6666 48.1731 10.6666C48.3344 10.6666 48.467 10.7127 48.5707 10.8048C48.6745 10.8854 48.7263 10.9776 48.7263 11.0813V15.7123C48.7263 16.2883 48.5765 16.824 48.2768 17.3194C47.9771 17.8147 47.5794 18.2122 47.0838 18.5117C46.5882 18.8112 46.0464 18.961 45.4585 18.961Z" fill="#1E231E"/>
<path d="M54.2262 18.961C53.5 18.961 52.8545 18.8285 52.2897 18.5635C51.7364 18.2871 51.2984 17.9011 50.9757 17.4058C50.6644 16.9104 50.5088 16.3344 50.5088 15.6778V13.7424C50.5088 13.1664 50.6587 12.6422 50.9584 12.1699C51.2581 11.6861 51.6557 11.3002 52.1514 11.0122C52.6585 10.7126 53.2118 10.5629 53.8112 10.5629C54.3875 10.5629 54.9178 10.7011 55.4019 10.9776C55.8975 11.2426 56.2952 11.6112 56.5949 12.0835C56.8946 12.5558 57.0444 13.0973 57.0444 13.7079C57.0444 14.1571 56.9695 14.4797 56.8197 14.6755C56.6698 14.8598 56.4796 14.9751 56.2491 15.0211C56.0301 15.0672 55.7938 15.0902 55.5402 15.0902H51.6327V15.7296C51.6327 16.4208 51.8805 16.9738 52.3761 17.3885C52.8718 17.7917 53.5 17.9933 54.2607 17.9933C54.7218 17.9933 55.0734 17.9357 55.3154 17.8205C55.569 17.7053 55.7707 17.5901 55.9206 17.4749C56.0704 17.3597 56.2087 17.3021 56.3355 17.3021C56.4739 17.3021 56.5891 17.3654 56.6813 17.4922C56.7736 17.6074 56.8197 17.7168 56.8197 17.8205C56.8197 17.9587 56.7102 18.12 56.4911 18.3043C56.2837 18.4771 55.984 18.6327 55.5921 18.7709C55.2117 18.8976 54.7564 18.961 54.2262 18.961ZM51.6327 14.2608H55.0907C55.4365 14.2608 55.667 14.2262 55.7823 14.1571C55.8975 14.0765 55.9552 13.9152 55.9552 13.6733C55.9552 13.3046 55.8629 12.959 55.6785 12.6365C55.4941 12.3024 55.2405 12.0317 54.9178 11.8243C54.595 11.6055 54.2204 11.496 53.7939 11.496C53.3905 11.496 53.0274 11.5939 52.7046 11.7898C52.3819 11.9741 52.1226 12.2275 51.9266 12.5501C51.7307 12.8726 51.6327 13.224 51.6327 13.6042V14.2608Z" fill="#1E231E"/>
<path d="M59.1366 18.9437C58.9061 18.9437 58.7159 18.863 58.5661 18.7018C58.4162 18.5405 58.3413 18.3562 58.3413 18.1488C58.3413 17.9299 58.4162 17.7456 58.5661 17.5959C58.7159 17.4346 58.9061 17.3539 59.1366 17.3539C59.3441 17.3539 59.5228 17.4346 59.6726 17.5959C59.834 17.7456 59.9147 17.9299 59.9147 18.1488C59.9147 18.3562 59.834 18.5405 59.6726 18.7018C59.5228 18.863 59.3441 18.9437 59.1366 18.9437Z" fill="#1E231E"/>
<path d="M60.5527 22.849C60.3452 22.849 60.1953 22.7971 60.1031 22.6935C60.0109 22.5898 59.9648 22.4746 59.9648 22.3478C59.9648 22.1866 60.0109 22.0598 60.1031 21.9677C60.1953 21.8755 60.3106 21.8294 60.4489 21.8294C60.8178 21.8294 61.0887 21.7315 61.2616 21.5357C61.446 21.3399 61.5612 21.0749 61.6073 20.7408C61.665 20.4067 61.6938 20.0208 61.6938 19.5831V11.0813C61.6938 10.9661 61.7457 10.8682 61.8494 10.7875C61.9532 10.7069 62.0857 10.6666 62.2471 10.6666C62.4084 10.6666 62.541 10.7069 62.6447 10.7875C62.76 10.8682 62.8176 10.9661 62.8176 11.0813V19.5831C62.8176 20.5392 62.6447 21.3226 62.2989 21.9331C61.9531 22.5437 61.3711 22.849 60.5527 22.849ZM62.2471 8.24737C62.0281 8.24737 61.8436 8.17825 61.6938 8.04001C61.5555 7.89025 61.4863 7.71745 61.4863 7.52161C61.4863 7.32577 61.5555 7.15873 61.6938 7.02049C61.8436 6.88225 62.0281 6.81313 62.2471 6.81313C62.4546 6.81313 62.6275 6.88225 62.7658 7.02049C62.9156 7.15873 62.9905 7.32577 62.9905 7.52161C62.9905 7.71745 62.9156 7.89025 62.7658 8.04001C62.6275 8.17825 62.4546 8.24737 62.2471 8.24737Z" fill="#1E231E"/>
<path d="M67.2163 18.961C66.6746 18.961 66.1962 18.8976 65.7813 18.7709C65.3778 18.6327 65.0608 18.4656 64.8303 18.2698C64.6113 18.0739 64.5018 17.8896 64.5018 17.7168C64.5018 17.6131 64.5364 17.5037 64.6055 17.3885C64.6862 17.2733 64.7842 17.2157 64.8995 17.2157C65.0263 17.2157 65.1646 17.2848 65.3144 17.4231C65.4643 17.5498 65.6833 17.6823 65.9714 17.8205C66.2596 17.9472 66.663 18.0106 67.1817 18.0106C67.8387 18.0106 68.2998 17.8896 68.5649 17.6477C68.83 17.3943 68.9626 17.1063 68.9626 16.7837C68.9626 16.4035 68.8589 16.1098 68.6514 15.9024C68.4439 15.6835 68.1788 15.5165 67.856 15.4013C67.5333 15.2746 67.1875 15.1651 66.8186 15.073C66.4613 14.9693 66.1155 14.8426 65.7813 14.6928C65.4585 14.5315 65.1934 14.3126 64.9859 14.0362C64.79 13.7597 64.692 13.3853 64.692 12.913C64.692 12.5443 64.7784 12.1815 64.9513 11.8243C65.1358 11.4672 65.4297 11.1677 65.8331 10.9258C66.2365 10.6838 66.7668 10.5629 67.4238 10.5629C67.8042 10.5629 68.1673 10.6032 68.5131 10.6838C68.8704 10.7645 69.1643 10.8739 69.3948 11.0122C69.6254 11.1389 69.7406 11.2714 69.7406 11.4096C69.7406 11.5018 69.6945 11.6227 69.6023 11.7725C69.5216 11.9223 69.4121 11.9971 69.2738 11.9971C69.1816 11.9971 69.0548 11.9568 68.8934 11.8762C68.7436 11.7955 68.5476 11.7149 68.3056 11.6342C68.0635 11.5536 67.7754 11.5133 67.4411 11.5133C67.0146 11.5133 66.6746 11.5882 66.421 11.7379C66.1674 11.8877 65.983 12.0662 65.8677 12.2736C65.764 12.481 65.7121 12.6768 65.7121 12.8611C65.7121 13.1952 65.8158 13.4544 66.0233 13.6387C66.2308 13.8115 66.4959 13.9498 66.8186 14.0534C67.1529 14.1571 67.4987 14.2608 67.856 14.3645C68.2249 14.4566 68.5707 14.5891 68.8934 14.7619C69.2162 14.9347 69.4813 15.1766 69.6888 15.4877C69.8963 15.7987 70 16.2134 70 16.7318C70 17.423 69.7579 17.9703 69.2738 18.3735C68.7897 18.7651 68.1039 18.961 67.2163 18.961Z" fill="#1E231E"/>
<path fill-rule="evenodd" clip-rule="evenodd" d="M13.8642 5.5425L17.066 0H27.7284L13.8642 24L0 0H10.6624L13.8642 5.5425ZM10.0508 1.05873H6.15729L13.8642 14.3997L21.5711 1.05873H17.6776L13.8642 7.65996L10.0508 1.05873Z" fill="#1E231E"/>
</svg>
