<svg width="212" height="48" viewBox="0 0 212 48" fill="none" xmlns="http://www.w3.org/2000/svg">
<path d="M122.695 18.8934H114.368V19.7768C116.972 19.7768 117.391 20.3351 117.391 23.638V29.5936C117.391 32.8965 116.973 33.5017 114.368 33.5017C112.368 33.2224 111.018 32.1525 109.157 30.1052L107.017 27.7793C109.901 27.2669 111.436 25.453 111.436 23.4057C111.436 20.8475 109.25 18.8934 105.156 18.8934H96.9684V19.7768C99.5729 19.7768 99.992 20.3351 99.992 23.638V29.5936C99.992 32.8965 99.5733 33.5017 96.9684 33.5017V34.3856H106.226V33.5017C103.621 33.5017 103.203 32.8965 103.203 29.5936V27.9196H103.993L109.158 34.3856H122.696C129.348 34.3856 132.233 30.8503 132.233 26.6162C132.232 22.3824 129.348 18.8934 122.695 18.8934ZM103.203 26.4759V20.2892H105.11C107.203 20.2892 108.134 21.7313 108.134 23.4061C108.134 25.0346 107.203 26.4763 105.11 26.4763L103.203 26.4759ZM122.835 32.9431H122.509C120.835 32.9431 120.603 32.5251 120.603 30.3849V20.2892H122.835C127.674 20.2892 128.557 23.8245 128.557 26.5696C128.557 29.4071 127.673 32.9431 122.835 32.9431ZM71.0567 28.1981L74.2667 18.7065C75.1976 15.9619 74.7788 15.1717 71.8014 15.1717V14.2409H80.5474V15.1717C77.6167 15.1717 76.9189 15.869 75.7558 19.2652L70.4518 35.1761H69.8473L65.1019 20.6144L60.2637 35.1761H59.6588L54.495 19.2656C53.3781 15.8694 52.6341 15.1721 49.9353 15.1721V14.2413H60.2633V15.1721C57.5182 15.1721 56.7735 15.8232 57.7509 18.7069L60.8678 28.1985L65.5665 14.2413H66.4507L71.0567 28.1981ZM86.8736 34.9897C81.7564 34.9897 77.5693 31.2217 77.5693 26.6154C77.5693 22.0561 81.7568 18.2877 86.8736 18.2877C91.9911 18.2877 96.1779 22.0561 96.1779 26.6154C96.1779 31.2217 91.9911 34.9897 86.8736 34.9897ZM86.8736 19.731C82.594 19.731 81.1049 23.5914 81.1049 26.6158C81.1049 29.6868 82.594 33.5014 86.8736 33.5014C91.2006 33.5014 92.6896 29.6868 92.6896 26.6158C92.6893 23.5914 91.2006 19.731 86.8736 19.731Z" fill="#151715"/>
<path d="M143.723 33.4547V34.3852H133.069V33.4547C136.186 33.4547 136.745 32.6638 136.745 28.0108V20.5682C136.745 15.9152 136.186 15.1717 133.069 15.1717V14.2405H142.699C147.491 14.2405 150.143 16.7062 150.143 20.0099C150.143 23.22 147.491 25.732 142.699 25.732H140.047V28.0108C140.047 32.6642 140.605 33.4547 143.723 33.4547ZM142.699 15.9153H140.047V24.0106H142.699C145.305 24.0106 146.514 22.1963 146.514 20.0099C146.514 17.7769 145.305 15.9153 142.699 15.9153ZM182.103 30.0123L181.87 30.8495C181.452 32.3848 180.939 32.9431 177.637 32.9431H176.985C174.566 32.9431 174.148 32.3848 174.148 29.0823V26.9425C177.776 26.9425 178.056 27.2677 178.056 29.6872H178.94V22.7546H178.056C178.056 25.1737 177.776 25.4993 174.148 25.4993V20.2893H176.706C180.009 20.2893 180.521 20.8475 180.939 22.3828L181.173 23.2666H181.916L181.591 18.8938H167.913V19.7772C170.518 19.7772 170.937 20.3355 170.937 23.6384V29.5936C170.937 32.6152 170.582 33.3764 168.528 33.4853C166.576 33.1868 165.236 32.1224 163.402 30.1052L161.262 27.7793C164.146 27.2669 165.682 25.453 165.682 23.4057C165.682 20.8475 163.495 18.8934 159.401 18.8934H151.213V19.7768C153.818 19.7768 154.237 20.3351 154.237 23.638V29.5936C154.237 32.8965 153.819 33.5017 151.213 33.5017V34.3856H160.472V33.5017C157.867 33.5017 157.448 32.8965 157.448 29.5936V27.9196H158.239L163.403 34.3856H182.523L182.802 30.0131L182.103 30.0123ZM157.447 26.4759V20.2893H159.354C161.447 20.2893 162.378 21.7313 162.378 23.4061C162.378 25.0346 161.447 26.4763 159.354 26.4763L157.447 26.4759ZM191.547 34.9897C189.686 34.9897 188.057 34.013 187.36 33.4077C187.127 33.6408 186.709 34.3385 186.616 34.9897H185.731V28.5699H186.662C187.034 31.6405 189.174 33.4547 191.919 33.4547C193.408 33.4547 194.617 32.6172 194.617 31.2221C194.617 30.0127 193.548 29.0819 191.64 28.1981L188.988 26.9421C187.127 26.0575 185.731 24.5218 185.731 22.4757C185.731 20.2426 187.825 18.3355 190.71 18.3355C192.245 18.3355 193.547 18.8942 194.338 19.5453C194.571 19.3588 194.804 18.8472 194.943 18.2885H195.827V23.7787H194.85C194.524 21.5919 193.315 19.7776 190.849 19.7776C189.547 19.7776 188.337 20.5216 188.337 21.6855C188.337 22.8948 189.314 23.546 191.547 24.5692L194.105 25.8252C196.339 26.8951 197.222 28.6173 197.222 30.0127C197.223 32.9431 194.664 34.9897 191.547 34.9897ZM205.875 34.9897C204.014 34.9897 202.386 34.013 201.688 33.4077C201.456 33.6408 201.037 34.3385 200.945 34.9897H200.06V28.5699H200.991C201.363 31.6405 203.502 33.4547 206.248 33.4547C207.737 33.4547 208.946 32.6172 208.946 31.2221C208.946 30.0127 207.876 29.0819 205.969 28.1981L203.316 26.9421C201.456 26.0575 200.06 24.5218 200.06 22.4757C200.06 20.2426 202.154 18.3355 205.038 18.3355C206.573 18.3355 207.875 18.8942 208.667 19.5453C208.899 19.3588 209.132 18.8472 209.271 18.2885H210.155V23.7787H209.179C208.853 21.5919 207.643 19.7776 205.178 19.7776C203.875 19.7776 202.665 20.5216 202.665 21.6855C202.665 22.8948 203.642 23.546 205.876 24.5692L208.434 25.8252C210.667 26.8951 211.551 28.6173 211.551 30.0127C211.55 32.9431 208.992 34.9897 205.875 34.9897Z" fill="#151715"/>
<path d="M3.41145 23.9992C3.41145 32.149 8.14743 39.1913 15.015 42.5291L5.19435 15.6203C4.0169 18.2566 3.40935 21.1119 3.41145 23.9992ZM37.8989 22.9603C37.8989 20.4158 36.9849 18.6537 36.201 17.2821C35.1573 15.5862 34.1791 14.15 34.1791 12.454C34.1791 10.5615 35.6145 8.79971 37.6364 8.79971C37.7277 8.79971 37.8142 8.81107 37.9032 8.81617C34.2402 5.46074 29.3601 3.41145 24.0004 3.41145C16.8077 3.41145 10.4792 7.10182 6.79821 12.6915C7.28086 12.706 7.73648 12.7157 8.12314 12.7157C10.2766 12.7157 13.6101 12.4544 13.6101 12.4544C14.72 12.389 14.8508 14.0191 13.7422 14.1504C13.7422 14.1504 12.6268 14.2816 11.3857 14.3466L18.8828 36.648L23.3885 23.135L20.1807 14.3462C19.0721 14.2812 18.0214 14.15 18.0214 14.15C16.9119 14.0849 17.042 12.3886 18.1514 12.454C18.1514 12.454 21.5519 12.7154 23.5749 12.7154C25.7277 12.7154 29.0619 12.454 29.0619 12.454C30.1726 12.3886 30.303 14.0187 29.194 14.15C29.194 14.15 28.0759 14.2812 26.8371 14.3462L34.2774 36.4783L36.331 29.6159C37.2215 26.7682 37.8989 24.7228 37.8989 22.9603Z" fill="#151715"/>
<path d="M24.3612 25.8001L18.1835 43.7498C20.0722 44.3064 22.031 44.589 24 44.5889C26.3285 44.5896 28.6402 44.1949 30.8366 43.4219C30.7795 43.3319 30.7305 43.2369 30.6901 43.1383L24.3612 25.8001ZM42.0656 14.1214C42.1545 14.7772 42.2043 15.4816 42.2043 16.2385C42.2043 18.3277 41.8141 20.6763 40.6388 23.6129L34.3499 41.7957C40.4708 38.2264 44.5878 31.5951 44.5878 23.9992C44.5933 20.5466 43.7257 17.1487 42.0656 14.1214Z" fill="#151715"/>
<path d="M24 0C10.7667 0 0 10.766 0 23.9992C0 37.234 10.7667 48 24.0004 48C37.2329 48 48.0016 37.2344 48.0016 23.9992C48.0008 10.766 37.2329 0 24 0ZM24 46.8995C11.3736 46.8995 1.10045 36.6264 1.10045 23.9992C1.10045 11.3732 11.3732 1.10085 24 1.10085C36.626 1.10085 46.898 11.3732 46.898 23.9992C46.8984 36.6264 36.626 46.8995 24 46.8995Z" fill="#151715"/>
</svg>
