<svg width="100" height="112" viewBox="0 0 100 112" fill="none" xmlns="http://www.w3.org/2000/svg">
<path d="M90.34 56C90.3394 50.0309 89.003 44.1377 86.4286 38.7523C83.8542 33.3669 80.1072 28.626 75.4623 24.8771C70.8173 21.1282 65.3923 18.4663 59.5848 17.0868C53.7774 15.7072 47.7348 15.6448 41.9001 16.9043C36.0655 18.1637 30.5866 20.713 25.8653 24.3653C21.144 28.0176 17.3 32.6802 14.615 38.0113C11.9301 43.3424 10.4723 49.2068 10.3486 55.1746C10.2248 61.1424 11.4383 67.0622 13.9 72.5H86.77C89.1291 67.3196 90.3466 61.6923 90.34 56Z" fill="#C5EABF"/>
<path d="M10.84 72.5H88.84" stroke="#1E231E" stroke-linecap="round" stroke-linejoin="round"/>
<path d="M6.33997 72.5H8.83997" stroke="#1E231E" stroke-linecap="round" stroke-linejoin="round"/>
<path d="M90.84 72.5H93.34" stroke="#1E231E" stroke-linecap="round" stroke-linejoin="round"/>
<path d="M44.04 65.63H37.14V69.77H44.04V65.63Z" fill="white"/>
<path d="M44.04 65.63H37.14V69.77H44.04V65.63Z" stroke="#1E231E" stroke-linecap="round" stroke-linejoin="round"/>
<path d="M49.56 72.53H31.62C31.62 71.798 31.9108 71.096 32.4284 70.5784C32.946 70.0608 33.648 69.77 34.38 69.77H46.8C47.5312 69.7727 48.2317 70.0643 48.7487 70.5813C49.2657 71.0984 49.5574 71.7988 49.56 72.53Z" fill="white" stroke="#1E231E" stroke-linecap="round" stroke-linejoin="round"/>
<path d="M59.2201 33.89H22C21.0851 33.89 20.2075 34.2535 19.5605 34.9005C18.9135 35.5475 18.55 36.425 18.55 37.34V60.11H62.67V37.34C62.6674 36.4258 62.3031 35.5498 61.6567 34.9034C61.0102 34.257 60.1342 33.8927 59.2201 33.89Z" fill="#93E683"/>
<path d="M45.0801 33.89H22C21.0851 33.89 20.2075 34.2535 19.5605 34.9005C18.9135 35.5475 18.55 36.425 18.55 37.34V60.47L45.0801 33.89Z" fill="white"/>
<path d="M59.2201 33.89H22C21.0851 33.89 20.2075 34.2535 19.5605 34.9005C18.9135 35.5475 18.55 36.425 18.55 37.34V60.11H62.67V37.34C62.6674 36.4258 62.3031 35.5498 61.6567 34.9034C61.0102 34.257 60.1342 33.8927 59.2201 33.89V33.89Z" stroke="#1E231E" stroke-linecap="round" stroke-linejoin="round"/>
<path d="M59.22 65.63C60.135 65.63 61.0125 65.2665 61.6595 64.6195C62.3065 63.9725 62.67 63.095 62.67 62.18V60.11H18.51V62.18C18.5086 62.6368 18.5983 63.0894 18.7737 63.5112C18.9491 63.933 19.2067 64.3156 19.5316 64.6368C19.8565 64.958 20.2421 65.2112 20.6659 65.3817C21.0897 65.5522 21.5432 65.6367 22 65.63H59.22Z" fill="white" stroke="#1E231E" stroke-linecap="round" stroke-linejoin="round"/>
<path d="M70.32 82.03C77.9415 82.03 84.12 81.2555 84.12 80.3C84.12 79.3446 77.9415 78.57 70.32 78.57C62.6985 78.57 56.52 79.3446 56.52 80.3C56.52 81.2555 62.6985 82.03 70.32 82.03Z" fill="#C5EABF"/>
<path d="M62.17 57.24H57.65C57.3739 57.24 57.15 57.4639 57.15 57.74V78.82C57.15 79.0962 57.3739 79.32 57.65 79.32H62.17C62.4462 79.32 62.67 79.0962 62.67 78.82V57.74C62.67 57.4639 62.4462 57.24 62.17 57.24Z" fill="white" stroke="#1E231E" stroke-linecap="round" stroke-linejoin="round"/>
<path d="M67.69 60H63.17C62.8939 60 62.67 60.2239 62.67 60.5V78.82C62.67 79.0961 62.8939 79.32 63.17 79.32H67.69C67.9662 79.32 68.19 79.0961 68.19 78.82V60.5C68.19 60.2239 67.9662 60 67.69 60Z" fill="white" stroke="#1E231E" stroke-linecap="round" stroke-linejoin="round"/>
<path d="M73.2101 57.24H68.6901C68.4139 57.24 68.1901 57.4639 68.1901 57.74V78.82C68.1901 79.0962 68.4139 79.32 68.6901 79.32H73.2101C73.4862 79.32 73.7101 79.0962 73.7101 78.82V57.74C73.7101 57.4639 73.4862 57.24 73.2101 57.24Z" fill="white" stroke="#1E231E" stroke-linecap="round" stroke-linejoin="round"/>
<path d="M62.67 61.38H57.15V64.14H62.67V61.38Z" fill="#93E683" stroke="#1E231E" stroke-linecap="round" stroke-linejoin="round"/>
<path d="M68.19 64.14H62.67V66.9H68.19V64.14Z" fill="#93E683" stroke="#1E231E" stroke-linecap="round" stroke-linejoin="round"/>
<path d="M73.7101 61.38H68.1901V64.14H73.7101V61.38Z" fill="#93E683" stroke="#1E231E" stroke-linecap="round" stroke-linejoin="round"/>
<path d="M78.4596 56.8031L74.0695 57.879C73.8013 57.9447 73.6371 58.2154 73.7029 58.4836L78.7204 78.9578C78.7862 79.226 79.0569 79.3901 79.3251 79.3244L83.7152 78.2485C83.9834 78.1828 84.1475 77.9121 84.0818 77.6439L79.0642 57.1697C78.9985 56.9015 78.7278 56.7374 78.4596 56.8031Z" fill="white" stroke="#1E231E" stroke-linecap="round" stroke-linejoin="round"/>
<path d="M79.9337 60.6985L74.5726 62.0134L75.23 64.6939L80.5912 63.3791L79.9337 60.6985Z" fill="#93E683" stroke="#1E231E" stroke-linecap="round" stroke-linejoin="round"/>
<path d="M32.18 53.12C31.8122 53.116 31.4577 52.9813 31.18 52.74L25.94 48.15C25.7764 48.0064 25.6453 47.8295 25.5555 47.6312C25.4656 47.4329 25.4192 47.2177 25.4192 47C25.4192 46.7823 25.4656 46.5671 25.5555 46.3688C25.6453 46.1705 25.7764 45.9936 25.94 45.85L31.18 41.26C31.4894 41.0202 31.8789 40.9081 32.2684 40.9468C32.6579 40.9854 33.0178 41.1719 33.274 41.4678C33.5303 41.7637 33.6633 42.1466 33.6458 42.5376C33.6283 42.9287 33.4616 43.2981 33.18 43.57L29.26 47L33.19 50.44C33.4233 50.6447 33.5888 50.9154 33.6646 51.2164C33.7404 51.5173 33.7229 51.8342 33.6144 52.1249C33.5059 52.4156 33.3115 52.6665 33.0572 52.8443C32.8028 53.022 32.5003 53.1181 32.19 53.12H32.18Z" fill="white" stroke="#1E231E" stroke-linejoin="round"/>
<path d="M49 53.12C48.7814 53.1202 48.5653 53.0729 48.3667 52.9814C48.1682 52.8899 47.9919 52.7563 47.85 52.59C47.7182 52.4392 47.6175 52.2639 47.5536 52.074C47.4898 51.8842 47.4641 51.6836 47.4781 51.4838C47.492 51.284 47.5453 51.089 47.6348 50.9098C47.7244 50.7307 47.8485 50.571 48 50.44L51.92 47L48 43.57C47.7184 43.2981 47.5517 42.9287 47.5342 42.5376C47.5167 42.1466 47.6498 41.7637 47.906 41.4678C48.1622 41.1719 48.5221 40.9854 48.9116 40.9468C49.3011 40.9081 49.6906 41.0202 50 41.26L55.24 45.85C55.4036 45.9936 55.5347 46.1705 55.6245 46.3688C55.7144 46.5671 55.7608 46.7823 55.7608 47C55.7608 47.2177 55.7144 47.4329 55.6245 47.6312C55.5347 47.8295 55.4036 48.0064 55.24 48.15L50 52.74C49.7214 52.9798 49.3675 53.1143 49 53.12Z" fill="white" stroke="#1E231E" stroke-linejoin="round"/>
<path d="M37.64 53.88C37.3734 53.8825 37.1109 53.8135 36.88 53.68C36.7052 53.5804 36.5517 53.4472 36.4284 53.2882C36.3051 53.1292 36.2144 52.9474 36.1615 52.7533C36.1085 52.5591 36.0944 52.3564 36.1199 52.1568C36.1454 51.9572 36.21 51.7646 36.31 51.59L42.43 40.89C42.5232 40.7037 42.6534 40.5383 42.8126 40.4041C42.9719 40.2698 43.1569 40.1696 43.3563 40.1093C43.5557 40.0491 43.7653 40.0303 43.9723 40.0539C44.1792 40.0775 44.3792 40.1432 44.5599 40.2468C44.7406 40.3505 44.8982 40.4899 45.0231 40.6566C45.148 40.8233 45.2375 41.0138 45.2862 41.2163C45.3349 41.4188 45.3418 41.6292 45.3063 41.8344C45.2708 42.0397 45.1939 42.2355 45.08 42.41L39 53.11C38.8627 53.348 38.6641 53.5449 38.425 53.6803C38.1858 53.8157 37.9148 53.8847 37.64 53.88Z" fill="white" stroke="#1E231E" stroke-linejoin="round"/>
<path d="M40.59 63.44C40.9048 63.44 41.16 63.1848 41.16 62.87C41.16 62.5552 40.9048 62.3 40.59 62.3C40.2752 62.3 40.02 62.5552 40.02 62.87C40.02 63.1848 40.2752 63.44 40.59 63.44Z" stroke="#1E231E" stroke-linecap="round" stroke-linejoin="round"/>
</svg>
