<svg width="100" height="112" viewBox="0 0 100 112" fill="none" xmlns="http://www.w3.org/2000/svg">
<path d="M90.5 56C90.4994 50.0309 89.163 44.1377 86.5886 38.7523C84.0142 33.3669 80.2672 28.626 75.6223 24.8771C70.9774 21.1282 65.5523 18.4663 59.7449 17.0868C53.9374 15.7072 47.8948 15.6448 42.0602 16.9043C36.2255 18.1637 30.7466 20.713 26.0254 24.3653C21.3041 28.0176 17.46 32.6802 14.7751 38.0113C12.0901 43.3424 10.6323 49.2068 10.5086 55.1746C10.3849 61.1424 11.5983 67.0622 14.06 72.5H86.94C89.2913 67.3173 90.5052 61.6911 90.5 56Z" fill="#C5EABF"/>
<path d="M11 72.5H89" stroke="#1E231E" stroke-linecap="round" stroke-linejoin="round"/>
<path d="M6.5 72.5H9" stroke="#1E231E" stroke-linecap="round" stroke-linejoin="round"/>
<path d="M91 72.5H93.5" stroke="#1E231E" stroke-linecap="round" stroke-linejoin="round"/>
<path d="M64 51.5V50.5C64 50.1895 64.0723 49.8833 64.2111 49.6056C64.35 49.3279 64.5516 49.0863 64.8 48.9L66 48" stroke="#1E231E" stroke-linecap="round" stroke-linejoin="round"/>
<path d="M66 47C65.8022 47 65.6089 47.0586 65.4444 47.1685C65.28 47.2784 65.1518 47.4346 65.0761 47.6173C65.0004 47.8 64.9806 48.0011 65.0192 48.1951C65.0578 48.3891 65.153 48.5673 65.2929 48.7071C65.4327 48.847 65.6109 48.9422 65.8049 48.9808C65.9989 49.0194 66.2 48.9996 66.3827 48.9239C66.5654 48.8482 66.7216 48.72 66.8315 48.5556C66.9413 48.3911 67 48.1978 67 48C67 47.7348 66.8946 47.4804 66.7071 47.2929C66.5196 47.1054 66.2652 47 66 47Z" fill="#1E231E"/>
<path d="M75 51.5V50.5C75 50.1895 74.9277 49.8833 74.7889 49.6056C74.65 49.3279 74.4484 49.0863 74.2 48.9L73 48" stroke="#1E231E" stroke-linecap="round" stroke-linejoin="round"/>
<path d="M73 47C72.8022 47 72.6089 47.0586 72.4444 47.1685C72.28 47.2784 72.1518 47.4346 72.0761 47.6173C72.0004 47.8 71.9806 48.0011 72.0192 48.1951C72.0578 48.3891 72.153 48.5673 72.2929 48.7071C72.4327 48.847 72.6109 48.9422 72.8049 48.9808C72.9989 49.0194 73.2 48.9996 73.3827 48.9239C73.5654 48.8482 73.7216 48.72 73.8315 48.5556C73.9413 48.3911 74 48.1978 74 48C74 47.7348 73.8946 47.4804 73.7071 47.2929C73.5196 47.1054 73.2652 47 73 47Z" fill="#1E231E"/>
<path d="M76 70.5H63C62.7348 70.5 62.4804 70.6054 62.2929 70.7929C62.1054 70.9804 62 71.2348 62 71.5V72.5H77V71.5C77 71.2348 76.8946 70.9804 76.7071 70.7929C76.5196 70.6054 76.2652 70.5 76 70.5Z" fill="#93E683" stroke="#1E231E" stroke-linecap="round" stroke-linejoin="round"/>
<path d="M76 51.5H63C62.4477 51.5 62 51.9477 62 52.5V59.5C62 60.0523 62.4477 60.5 63 60.5H76C76.5523 60.5 77 60.0523 77 59.5V52.5C77 51.9477 76.5523 51.5 76 51.5Z" fill="#93E683"/>
<path d="M76 51.5H63C62.4477 51.5 62 51.9477 62 52.5V59.5C62 60.0523 62.4477 60.5 63 60.5H76C76.5523 60.5 77 60.0523 77 59.5V52.5C77 51.9477 76.5523 51.5 76 51.5Z" stroke="#1E231E" stroke-linecap="round" stroke-linejoin="round"/>
<path d="M75 60.5H64V70.5H75V60.5Z" fill="#93E683"/>
<path d="M75 60.5H64V70.5H75V60.5Z" stroke="#1E231E" stroke-linecap="round" stroke-linejoin="round"/>
<path d="M69.5 59C71.1569 59 72.5 57.6569 72.5 56C72.5 54.3431 71.1569 53 69.5 53C67.8431 53 66.5 54.3431 66.5 56C66.5 57.6569 67.8431 59 69.5 59Z" fill="white" stroke="#1E231E" stroke-linecap="round" stroke-linejoin="round"/>
<path d="M73 60.5H66V70.5H73V60.5Z" fill="white"/>
<path d="M73 60.5H66V70.5H73V60.5Z" stroke="#1E231E" stroke-linecap="round" stroke-linejoin="round"/>
<path d="M68.4399 54.94C68.5785 54.7997 68.7436 54.6883 68.9255 54.6123C69.1075 54.5363 69.3027 54.4971 69.4999 54.4971C69.6971 54.4971 69.8924 54.5363 70.0743 54.6123C70.2563 54.6883 70.4213 54.7997 70.5599 54.94" stroke="#1E231E" stroke-linecap="round" stroke-linejoin="round"/>
<path d="M70.5599 57.06C70.4213 57.2003 70.2563 57.3117 70.0743 57.3877C69.8924 57.4637 69.6971 57.5029 69.4999 57.5029C69.3027 57.5029 69.1075 57.4637 68.9255 57.3877C68.7436 57.3117 68.5785 57.2003 68.4399 57.06" stroke="#1E231E" stroke-linecap="round" stroke-linejoin="round"/>
<path d="M47.1199 32.72C47.1181 32.3969 47.0061 32.084 46.8025 31.8331C46.5989 31.5822 46.3158 31.4083 45.9999 31.34V30.42C45.9999 28.59 45.273 26.835 43.979 25.541C42.685 24.247 40.9299 23.52 39.0999 23.52C37.2699 23.52 35.5149 24.247 34.2209 25.541C32.9269 26.835 32.1999 28.59 32.1999 30.42V31.34C31.8653 31.4034 31.565 31.5858 31.3544 31.8534C31.1438 32.1211 31.0372 32.4559 31.0543 32.796C31.0713 33.1361 31.2109 33.4586 31.4472 33.7038C31.6836 33.949 32.0007 34.1004 32.3399 34.13C32.6633 35.6824 33.5114 37.076 34.7417 38.0764C35.972 39.0768 37.5093 39.6229 39.0949 39.6229C40.6806 39.6229 42.2179 39.0768 43.4481 38.0764C44.6784 37.076 45.5266 35.6824 45.8499 34.13C46.1974 34.0909 46.5185 33.9258 46.7525 33.666C46.9865 33.4062 47.1172 33.0697 47.1199 32.72Z" fill="white" stroke="#1E231E" stroke-linecap="round" stroke-linejoin="round"/>
<path d="M35.33 34.44C35.8049 34.44 36.19 34.055 36.19 33.58C36.19 33.105 35.8049 32.72 35.33 32.72C34.855 32.72 34.47 33.105 34.47 33.58C34.47 34.055 34.855 34.44 35.33 34.44Z" fill="#93E683"/>
<path d="M42.81 34.44C43.2849 34.44 43.6699 34.055 43.6699 33.58C43.6699 33.105 43.2849 32.72 42.81 32.72C42.335 32.72 41.95 33.105 41.95 33.58C41.95 34.055 42.335 34.44 42.81 34.44Z" fill="#93E683"/>
<path d="M40.7898 35.6C40.2906 35.9694 39.6859 36.1688 39.0648 36.1688C38.4438 36.1688 37.8391 35.9694 37.3398 35.6" stroke="#1E231E" stroke-linecap="round" stroke-linejoin="round"/>
<path d="M36.4798 30.42C36.3069 30.418 36.1373 30.4676 35.9927 30.5625C35.8481 30.6573 35.7351 30.7931 35.668 30.9524C35.6009 31.1118 35.5828 31.2876 35.6161 31.4572C35.6493 31.6269 35.7324 31.7829 35.8547 31.9051C35.9769 32.0274 36.1329 32.1105 36.3026 32.1437C36.4723 32.177 36.648 32.1589 36.8074 32.0918C36.9668 32.0247 37.1025 31.9117 37.1973 31.7671C37.2922 31.6225 37.3418 31.4529 37.3398 31.28C37.3372 31.0527 37.2458 30.8355 37.085 30.6748C36.9243 30.514 36.7071 30.4226 36.4798 30.42Z" fill="#1E231E"/>
<path d="M41.66 30.42C41.4871 30.418 41.3175 30.4676 41.1729 30.5625C41.0283 30.6573 40.9153 30.7931 40.8482 30.9524C40.7811 31.1118 40.763 31.2876 40.7963 31.4572C40.8295 31.6269 40.9126 31.7829 41.0348 31.9051C41.1571 32.0274 41.313 32.1105 41.4827 32.1437C41.6524 32.177 41.8282 32.1589 41.9876 32.0918C42.1469 32.0247 42.2827 31.9117 42.3775 31.7671C42.4724 31.6225 42.522 31.4529 42.52 31.28C42.5174 31.0527 42.4259 30.8355 42.2652 30.6748C42.1045 30.514 41.8873 30.4226 41.66 30.42Z" fill="#1E231E"/>
<path d="M45.7599 24.86C45.6927 24.1758 45.3724 23.5412 44.8619 23.0807C44.3515 22.6201 43.6874 22.3667 42.9999 22.37H35.0999C34.4158 22.3717 33.7567 22.6273 33.2505 23.0874C32.7442 23.5475 32.4268 24.1792 32.3599 24.86L31.9099 29.27L34.1599 28.15C34.4887 27.9839 34.8699 27.9552 35.2199 28.07L38.7099 29.16C38.9312 29.2298 39.1686 29.2298 39.3899 29.16L42.8799 28.07C43.2299 27.9552 43.6111 27.9839 43.9399 28.15L46.1799 29.27L45.7599 24.86Z" fill="#93E683" stroke="#1E231E" stroke-linecap="round" stroke-linejoin="round"/>
<path d="M27.5698 22.37H50.5598" stroke="#1E231E" stroke-linecap="round" stroke-linejoin="round"/>
<path d="M51.72 35.48V26.58" stroke="#1E231E" stroke-linecap="round" stroke-linejoin="round"/>
<path d="M49.99 33.41V27.08" stroke="#1E231E" stroke-linecap="round" stroke-linejoin="round"/>
<path d="M50.5598 24.44V22.37" stroke="#1E231E" stroke-linecap="round" stroke-linejoin="round"/>
<path d="M50.5599 27.2C51.3221 27.2 51.9399 26.5822 51.9399 25.82C51.9399 25.0578 51.3221 24.44 50.5599 24.44C49.7978 24.44 49.1799 25.0578 49.1799 25.82C49.1799 26.5822 49.7978 27.2 50.5599 27.2Z" fill="#93E683" stroke="#1E231E" stroke-linecap="round" stroke-linejoin="round"/>
<path d="M39.0699 20.07C37.9199 20.07 37.9199 21 37.9199 21.68V22.37H40.2199V21.68C40.2199 21 40.2199 20.07 39.0699 20.07Z" fill="#93E683" stroke="#1E231E" stroke-linecap="round" stroke-linejoin="round"/>
<path d="M39.0598 87C45.4111 87 50.5598 86.2299 50.5598 85.28C50.5598 84.3301 45.4111 83.56 39.0598 83.56C32.7085 83.56 27.5598 84.3301 27.5598 85.28C27.5598 86.2299 32.7085 87 39.0598 87Z" fill="#C5EABF"/>
<path d="M51.4899 55C51.4899 54.77 51.4899 54.54 51.4899 54.31C51.4899 51.016 50.1814 47.8569 47.8522 45.5277C45.523 43.1985 42.3639 41.89 39.0699 41.89C35.7759 41.89 32.6168 43.1985 30.2876 45.5277C27.9584 47.8569 26.6499 51.016 26.6499 54.31C26.6499 54.54 26.6499 54.77 26.6499 55H51.4899Z" fill="white" stroke="#1E231E" stroke-linecap="round" stroke-linejoin="round"/>
<path d="M34.95 47.71L39.0999 44.68L43.25 47.71L39.0999 51.58L34.95 47.71Z" fill="white" stroke="#1E231E" stroke-linecap="round" stroke-linejoin="round"/>
<path d="M39.0998 44.68L36.3398 55.03H41.8598L39.0998 44.68Z" fill="#93E683" stroke="#1E231E" stroke-linecap="round" stroke-linejoin="round"/>
<path d="M46.66 65.38H31.48V77.8H46.66V65.38Z" fill="#93E683" stroke="#1E231E" stroke-linecap="round" stroke-linejoin="round"/>
<path d="M39.76 61.93H31.48V84H37L37.63 69.51C37.63 69.1281 37.7817 68.7618 38.0517 68.4918C38.3218 68.2217 38.6881 68.07 39.07 68.07C39.4519 68.07 39.8182 68.2217 40.0882 68.4918C40.3583 68.7618 40.51 69.1281 40.51 69.51L41.14 84H46.66V61.93H39.76Z" fill="#93E683"/>
<path d="M39.76 61.93H31.48V84H37L37.63 69.51C37.63 69.1281 37.7817 68.7618 38.0517 68.4918C38.3218 68.2217 38.6881 68.07 39.07 68.07C39.4519 68.07 39.8182 68.2217 40.0882 68.4918C40.3583 68.7618 40.51 69.1281 40.51 69.51L41.14 84H46.66V61.93H39.76Z" stroke="#1E231E" stroke-linecap="round" stroke-linejoin="round"/>
<path d="M30.61 82.92C30.4944 83.0962 30.4295 83.3007 30.4223 83.5112C30.4151 83.7217 30.4658 83.9302 30.569 84.1139C30.6722 84.2976 30.8239 84.4494 31.0074 84.5527C31.191 84.6561 31.3994 84.707 31.61 84.7H36.32C36.5201 84.7033 36.7176 84.6543 36.893 84.5578C37.0684 84.4613 37.2156 84.3208 37.32 84.15C37.4154 83.977 37.4654 83.7826 37.4654 83.585C37.4654 83.3874 37.4154 83.193 37.32 83.02C36.05 80.61 32.05 80.74 30.61 82.92Z" fill="white" stroke="#1E231E" stroke-linecap="round" stroke-linejoin="round"/>
<path d="M47.5198 82.92C47.6353 83.0962 47.7003 83.3007 47.7075 83.5112C47.7147 83.7217 47.6639 83.9302 47.5608 84.1139C47.4576 84.2976 47.3059 84.4494 47.1224 84.5527C46.9388 84.6561 46.7304 84.707 46.5198 84.7H41.8498C41.6497 84.7033 41.4522 84.6543 41.2768 84.5578C41.1014 84.4613 40.9542 84.3208 40.8498 84.15C40.7516 83.9779 40.7 83.7831 40.7 83.585C40.7 83.3868 40.7516 83.1921 40.8498 83.02C42.0898 80.61 46.0898 80.74 47.5198 82.92Z" fill="white" stroke="#1E231E" stroke-linecap="round" stroke-linejoin="round"/>
<path d="M46.6599 66.17C46.6599 66.719 46.878 67.2455 47.2662 67.6337C47.6544 68.0219 48.1809 68.24 48.7299 68.24C49.2789 68.24 49.8054 68.0219 50.1936 67.6337C50.5818 67.2455 50.7999 66.719 50.7999 66.17V62.62H46.6599V66.17Z" fill="white" stroke="#1E231E" stroke-linecap="round" stroke-linejoin="round"/>
<path d="M31.48 55V65.38H46.66V62.62H50.34C50.645 62.62 50.9375 62.4988 51.1532 62.2832C51.3688 62.0675 51.49 61.775 51.49 61.47V55H31.48Z" fill="white" stroke="#1E231E" stroke-linecap="round" stroke-linejoin="round"/>
<path d="M35.4399 55H26.6899C26.7898 56.6794 27.2735 58.3136 28.1039 59.7768C28.9343 61.24 30.0893 62.4932 31.4799 63.44V75.73H35.1099C35.422 75.7277 35.7204 75.6018 35.9399 75.38C36.0477 75.2671 36.1316 75.1337 36.1866 74.9876C36.2416 74.8416 36.2665 74.6859 36.2599 74.53L35.4399 55Z" fill="white"/>
<path d="M39.0798 59.86V65.38" stroke="#1E231E" stroke-linecap="round" stroke-linejoin="round"/>
<path d="M50.7999 62.62H46.6599V64.69H50.7999V62.62Z" fill="white" stroke="#1E231E" stroke-linecap="round" stroke-linejoin="round"/>
<path d="M35.45 55.03L39.08 59.86L42.7099 55.03H35.45Z" fill="#93E683" stroke="#1E231E" stroke-linecap="round" stroke-linejoin="round"/>
<path d="M35.4399 55H26.6899C26.7898 56.6794 27.2735 58.3136 28.1039 59.7768C28.9343 61.24 30.0893 62.4932 31.4799 63.44V75.73H35.1099C35.422 75.7277 35.7204 75.6018 35.9399 75.38C36.0477 75.2671 36.1316 75.1337 36.1866 74.9876C36.2416 74.8416 36.2665 74.6859 36.2599 74.53L35.4399 55Z" stroke="#1E231E" stroke-linecap="round" stroke-linejoin="round"/>
<path d="M35.8999 70.11L34.4899 69.53C34.3069 69.4516 34.1429 69.3347 34.0089 69.1874C33.875 69.0401 33.7743 68.8657 33.7136 68.676C33.6529 68.4864 33.6337 68.2859 33.6572 68.0882C33.6807 67.8905 33.7464 67.7001 33.8499 67.53L37.1199 62.42L38.3799 56.49C38.4208 56.2919 38.5048 56.1051 38.6259 55.943C38.747 55.7809 38.9022 55.6474 39.0807 55.552C39.2591 55.4566 39.4563 55.4016 39.6584 55.3909C39.8605 55.3801 40.0624 55.414 40.2499 55.49L41.6599 56.07C41.8441 56.1471 42.0093 56.2632 42.1442 56.4104C42.2791 56.5576 42.3805 56.7322 42.4413 56.9224C42.5022 57.1125 42.521 57.3136 42.4966 57.5117C42.4722 57.7099 42.4051 57.9003 42.2999 58.07L38.9999 63.19L37.7499 69.12C37.7057 69.3139 37.6204 69.4961 37.4997 69.6542C37.3791 69.8124 37.2259 69.9428 37.0505 70.0366C36.8752 70.1305 36.6817 70.1856 36.4832 70.1982C36.2847 70.2109 36.0858 70.1808 35.8999 70.11Z" fill="white" stroke="#1E231E" stroke-linecap="round" stroke-linejoin="round"/>
<path d="M38.3799 60.55H36.9999C35.5877 60.3957 34.2718 59.7595 33.2737 58.7487C32.2756 57.7378 31.6563 56.414 31.5199 55H27.3599C27.7399 60.57 32.6199 64.66 36.9999 64.66H38.3799C38.9289 64.66 39.4554 64.4419 39.8436 64.0537C40.2318 63.6655 40.4499 63.139 40.4499 62.59C40.4499 62.041 40.2318 61.5145 39.8436 61.1263C39.4554 60.7381 38.9289 60.52 38.3799 60.52V60.55Z" fill="white" stroke="#1E231E" stroke-linecap="round" stroke-linejoin="round"/>
<path d="M32.2099 55H26.6899C26.8218 57.3114 27.6796 59.5222 29.1411 61.3177C30.6026 63.1132 32.5934 64.4018 34.8299 65L36.5799 59.76C35.4444 59.5249 34.4116 58.9389 33.6274 58.0847C32.8432 57.2305 32.3473 56.1514 32.2099 55Z" fill="white" stroke="#1E231E" stroke-linecap="round" stroke-linejoin="round"/>
<path d="M32.2899 64L32.7899 64.26L34.5499 58.92C33.9024 58.4718 33.3585 57.89 32.9549 57.2137C32.5512 56.5375 32.2972 55.7827 32.2099 55H26.6899C26.7897 56.8504 27.3554 58.6456 28.3344 60.219C29.3134 61.7924 30.674 63.093 32.2899 64Z" fill="white"/>
<path d="M37.23 64.69L38.6 60.57H38.38H37C36.7781 60.5625 36.5573 60.5358 36.34 60.49L35.02 64.49C35.6725 64.6648 36.3446 64.7556 37.02 64.76L37.23 64.69Z" fill="white" stroke="#1E231E" stroke-linecap="round" stroke-linejoin="round"/>
<path d="M32.2899 64L32.7899 64.26L34.5499 58.92C33.9024 58.4718 33.3585 57.89 32.9549 57.2137C32.5512 56.5375 32.2972 55.7827 32.2099 55H26.6899C26.7897 56.8504 27.3554 58.6456 28.3344 60.219C29.3134 61.7924 30.674 63.093 32.2899 64V64Z" stroke="#1E231E" stroke-linecap="round" stroke-linejoin="round"/>
<path d="M42.6899 55L41.8799 74.5C41.8734 74.6559 41.8983 74.8116 41.9533 74.9576C42.0083 75.1037 42.0922 75.2371 42.1999 75.35C42.3076 75.4612 42.4366 75.5495 42.5792 75.6096C42.7219 75.6698 42.8752 75.7005 43.0299 75.7H46.6599V60.55H51.4899V55H42.6899Z" fill="white"/>
<path d="M42.6899 55L41.8799 74.5C41.8734 74.6559 41.8983 74.8116 41.9533 74.9576C42.0083 75.1037 42.0922 75.2371 42.1999 75.35C42.3076 75.4612 42.4366 75.5495 42.5792 75.6096C42.7219 75.6698 42.8752 75.7005 43.0299 75.7H46.6599V60.55H51.4899V55H42.6899Z" stroke="#1E231E" stroke-linecap="round" stroke-linejoin="round"/>
<path d="M39.0999 44.68L42.5199 42.4C40.278 41.7603 37.9018 41.7603 35.6599 42.4L39.0999 44.68Z" fill="white" stroke="#1E231E" stroke-linecap="round" stroke-linejoin="round"/>
<path d="M35 42.63V47.71L39.15 44.71L35.65 42.4L35 42.63Z" fill="white" stroke="#1E231E" stroke-linecap="round" stroke-linejoin="round"/>
<path d="M43.2499 42.63V47.71L39.0999 44.71L42.5199 42.43L43.2499 42.63Z" fill="white" stroke="#1E231E" stroke-linecap="round" stroke-linejoin="round"/>
<path d="M46.6599 62.62V55.03" stroke="#1E231E" stroke-linecap="round" stroke-linejoin="round"/>
<path d="M39.1 55L48.5 46.21C47.9531 45.5735 47.3434 44.9939 46.68 44.48L39.1 51.58L31.5 44.51C30.8484 45.0159 30.2487 45.5854 29.71 46.21L39.1 55Z" fill="white"/>
<path d="M39.1 55L48.5 46.21C47.9531 45.5735 47.3434 44.9939 46.68 44.48L39.1 51.58L31.5 44.51C30.8484 45.0159 30.2487 45.5854 29.71 46.21L39.1 55Z" stroke="#1E231E" stroke-linecap="round" stroke-linejoin="round"/>
<path d="M48.4999 46.24L39.0999 55H51.4899C51.4899 54.77 51.4899 54.54 51.4899 54.31C51.4921 51.3487 50.4311 48.485 48.4999 46.24Z" fill="#93E683"/>
<path d="M29.6998 46.21C27.7515 48.4692 26.6859 51.3568 26.6998 54.34C26.6998 54.57 26.6998 54.8 26.6998 55.03H39.0998L29.6998 46.21Z" fill="#93E683"/>
<path d="M48.4999 46.24L39.0999 55H51.4899C51.4899 54.77 51.4899 54.54 51.4899 54.31C51.4921 51.3487 50.4311 48.485 48.4999 46.24V46.24Z" stroke="#1E231E" stroke-linecap="round" stroke-linejoin="round"/>
<path d="M29.6998 46.21C27.7515 48.4692 26.6859 51.3568 26.6998 54.34C26.6998 54.57 26.6998 54.8 26.6998 55.03H39.0998L29.6998 46.21V46.21Z" stroke="#1E231E" stroke-linecap="round" stroke-linejoin="round"/>
</svg>
