<svg width="100" height="112" viewBox="0 0 100 112" fill="none" xmlns="http://www.w3.org/2000/svg">
<path d="M90.5 56.08C90.4994 50.1109 89.163 44.2177 86.5886 38.8323C84.0142 33.4469 80.2672 28.706 75.6223 24.9571C70.9774 21.2082 65.5523 18.5463 59.7449 17.1667C53.9374 15.7872 47.8948 15.7248 42.0602 16.9843C36.2255 18.2437 30.7466 20.793 26.0254 24.4453C21.3041 28.0976 17.46 32.7602 14.7751 38.0913C12.0901 43.4224 10.6323 49.2868 10.5086 55.2546C10.3849 61.2224 11.5983 67.1422 14.06 72.58H86.94C89.2892 67.3966 90.503 61.7709 90.5 56.08V56.08Z" fill="#C5EABF"/>
<path d="M11.5 72.58H89.5" stroke="#1E231E" stroke-linecap="round" stroke-linejoin="round"/>
<path d="M7 72.58H9.5" stroke="#1E231E" stroke-linecap="round" stroke-linejoin="round"/>
<path d="M91.5 72.58H94" stroke="#1E231E" stroke-linecap="round" stroke-linejoin="round"/>
<path d="M28 83.08C32.6944 83.08 36.5 82.4084 36.5 81.58C36.5 80.7516 32.6944 80.08 28 80.08C23.3056 80.08 19.5 80.7516 19.5 81.58C19.5 82.4084 23.3056 83.08 28 83.08Z" fill="#C5EABF"/>
<path d="M54.5 55.08H58.75C58.9481 55.0774 59.1374 54.9975 59.2775 54.8575C59.4176 54.7174 59.4974 54.5281 59.5 54.33C59.4895 54.247 59.4895 54.163 59.5 54.08H63C63.0105 54.163 63.0105 54.247 63 54.33C62.9974 55.4563 62.5487 56.5358 61.7523 57.3323C60.9558 58.1287 59.8764 58.5773 58.75 58.58H54.5C54.0359 58.58 53.5908 58.3956 53.2626 58.0674C52.9344 57.7392 52.75 57.2941 52.75 56.83C52.75 56.3659 52.9344 55.9207 53.2626 55.5925C53.5908 55.2644 54.0359 55.08 54.5 55.08V55.08Z" fill="white" stroke="#1E231E" stroke-linecap="round" stroke-linejoin="round"/>
<path d="M78.5 52.58C78.5 50.0604 77.4991 47.6441 75.7175 45.8625C73.9359 44.0809 71.5196 43.08 69 43.08C66.4804 43.08 64.0641 44.0809 62.2825 45.8625C60.5009 47.6441 59.5 50.0604 59.5 52.58V54.08H62V60.58H75V54.08H78.5V52.58Z" fill="#93E683"/>
<path d="M62.5 60.58L64.5 79.08H72.5L74.5 60.58H62.5Z" fill="#93E683" stroke="#1E231E" stroke-linecap="round" stroke-linejoin="round"/>
<path d="M68.5 63.58V79.08" stroke="#1E231E" stroke-linecap="round" stroke-linejoin="round"/>
<path d="M74 79.08C74.1719 79.0803 74.3409 79.0364 74.4908 78.9524C74.6408 78.8684 74.7665 78.7472 74.856 78.6005C74.9454 78.4538 74.9955 78.2864 75.0015 78.1147C75.0075 77.943 74.9691 77.7726 74.89 77.62C74.63 77.1532 74.2501 76.7644 73.7895 76.4937C73.3289 76.2229 72.8043 76.0801 72.27 76.08H71.77C70.9744 76.08 70.2113 76.3961 69.6487 76.9587C69.0861 77.5213 68.77 78.2843 68.77 79.08H74Z" fill="white" stroke="#1E231E" stroke-linecap="round" stroke-linejoin="round"/>
<path d="M68.4999 79.08C68.4999 78.2843 68.1839 77.5213 67.6213 76.9586C67.0586 76.396 66.2956 76.08 65.4999 76.08H64.9999C64.464 76.0783 63.9373 76.2203 63.4748 76.4911C63.0123 76.7619 62.6308 77.1517 62.3699 77.62C62.2905 77.7733 62.2521 77.9446 62.2585 78.1172C62.2649 78.2898 62.3159 78.4578 62.4066 78.6048C62.4972 78.7518 62.6243 78.8728 62.7756 78.9561C62.9269 79.0394 63.0972 79.0821 63.2699 79.08H68.4999Z" fill="white" stroke="#1E231E" stroke-linecap="round" stroke-linejoin="round"/>
<path d="M78.5 52.58C78.5 50.0604 77.4991 47.6441 75.7175 45.8625C73.9359 44.0809 71.5196 43.08 69 43.08C66.4804 43.08 64.0641 44.0809 62.2825 45.8625C60.5009 47.6441 59.5 50.0604 59.5 52.58V54.08H62V60.58H75V54.08H78.5V52.58Z" stroke="#1E231E" stroke-linecap="round" stroke-linejoin="round"/>
<path d="M68.5 27.08C70.0913 27.08 71.6174 27.7121 72.7426 28.8373C73.8679 29.9626 74.5 31.4887 74.5 33.08V33.88C74.7807 33.9315 75.0345 34.0797 75.2172 34.299C75.3999 34.5182 75.5 34.7946 75.5 35.08C75.4963 35.3872 75.3786 35.6821 75.1698 35.9075C74.961 36.1329 74.676 36.2728 74.37 36.3C74.0634 37.7492 73.2315 39.0338 72.0345 39.9064C70.8375 40.779 69.36 41.178 67.8865 41.0265C66.413 40.8751 65.0476 40.1839 64.0531 39.086C63.0586 37.9882 62.5054 36.5613 62.5 35.08V33.08C62.5 31.4887 63.1321 29.9626 64.2574 28.8373C65.3826 27.7121 66.9087 27.08 68.5 27.08Z" fill="white" stroke="#1E231E" stroke-linecap="round" stroke-linejoin="round"/>
<path d="M71.25 36.58C71.6642 36.58 72 36.2442 72 35.83C72 35.4158 71.6642 35.08 71.25 35.08C70.8358 35.08 70.5 35.4158 70.5 35.83C70.5 36.2442 70.8358 36.58 71.25 36.58Z" fill="#93E683"/>
<path d="M69 37.62C68.5565 37.9179 68.0343 38.077 67.5 38.077C66.9657 38.077 66.4435 37.9179 66 37.62" stroke="#1E231E" stroke-linecap="round" stroke-linejoin="round"/>
<path d="M75 54.08V51.08" stroke="#1E231E" stroke-linecap="round" stroke-linejoin="round"/>
<path d="M62 54.08V51.08" stroke="#1E231E" stroke-linecap="round" stroke-linejoin="round"/>
<path d="M68.9999 43.08C70.0189 43.0712 71.0324 43.23 71.9999 43.55C71.8975 44.3593 71.514 45.107 70.9164 45.6623C70.3188 46.2177 69.545 46.5454 68.7303 46.5883C67.9157 46.6312 67.1118 46.3865 66.4592 45.8969C65.8066 45.4074 65.3467 44.7041 65.1599 43.91C66.3683 43.3693 67.6761 43.0867 68.9999 43.08Z" fill="white" stroke="#1E231E" stroke-linecap="round" stroke-linejoin="round"/>
<path d="M73 28.58C73 28.58 73.5 24.58 68.5 24.58C66.62 24.58 65.59 24.29 65.41 23.73C65.389 23.6399 65.3501 23.555 65.2957 23.4803C65.2412 23.4056 65.1723 23.3425 65.093 23.295C65.0137 23.2474 64.9257 23.2162 64.8341 23.2034C64.7425 23.1905 64.6493 23.1961 64.56 23.22C62.44 23.89 60.75 26.92 62.5 33.08C62.5014 32.775 62.5281 32.4706 62.58 32.17C62.6781 31.5728 62.8634 30.9933 63.13 30.45C64.23 29.35 65.24 30.82 67.5 30.82C68.8387 30.8129 70.1752 30.7126 71.5 30.52C71.6574 30.49 71.8192 30.4924 71.9757 30.527C72.1321 30.5616 72.2798 30.6277 72.4099 30.7213C72.5399 30.8148 72.6496 30.9339 72.7321 31.0712C72.8147 31.2085 72.8684 31.3612 72.89 31.52C72.893 31.9139 73.0367 32.2937 73.2953 32.5908C73.5539 32.8879 73.9103 33.0827 74.3 33.14H74.54C74.54 33.14 75.5 28.58 73 28.58Z" fill="white"/>
<path d="M73 28.58C73 28.58 73.5 24.58 68.5 24.58C66.62 24.58 65.59 24.29 65.41 23.73C65.389 23.6399 65.3501 23.555 65.2957 23.4803C65.2412 23.4056 65.1723 23.3425 65.093 23.295C65.0137 23.2474 64.9257 23.2162 64.8341 23.2034C64.7425 23.1905 64.6493 23.1961 64.56 23.22C62.44 23.89 60.75 26.92 62.5 33.08C62.5014 32.775 62.5281 32.4706 62.58 32.17C62.6781 31.5728 62.8634 30.9933 63.13 30.45C64.23 29.35 65.24 30.82 67.5 30.82C68.8387 30.8129 70.1752 30.7126 71.5 30.52C71.6574 30.49 71.8192 30.4924 71.9757 30.527C72.1321 30.5616 72.2798 30.6277 72.4099 30.7213C72.5399 30.8148 72.6496 30.9339 72.7321 31.0712C72.8147 31.2085 72.8684 31.3612 72.89 31.52C72.893 31.9139 73.0367 32.2937 73.2953 32.5908C73.5539 32.8879 73.9103 33.0827 74.3 33.14H74.54C74.54 33.14 75.5 28.58 73 28.58Z" stroke="#1E231E" stroke-linecap="round" stroke-linejoin="round"/>
<path d="M70 55.08H74.25C74.4481 55.0774 74.6374 54.9975 74.7775 54.8575C74.9176 54.7174 74.9974 54.5281 75 54.33C74.9895 54.247 74.9895 54.163 75 54.08H78.44C78.4505 54.163 78.4505 54.247 78.44 54.33C78.4374 55.4563 77.9887 56.5358 77.1923 57.3323C76.3958 58.1287 75.3164 58.5773 74.19 58.58H70C69.5359 58.58 69.0908 58.3956 68.7626 58.0674C68.4344 57.7392 68.25 57.2941 68.25 56.83C68.25 56.3659 68.4344 55.9207 68.7626 55.5925C69.0908 55.2644 69.5359 55.08 70 55.08V55.08Z" fill="white" stroke="#1E231E" stroke-linecap="round" stroke-linejoin="round"/>
<path d="M64.27 36.08C65.3746 36.08 66.27 35.1846 66.27 34.08C66.27 32.9754 65.3746 32.08 64.27 32.08C63.1654 32.08 62.27 32.9754 62.27 34.08C62.27 35.1846 63.1654 36.08 64.27 36.08Z" fill="#93E683"/>
<path d="M70.27 36.08C71.3746 36.08 72.27 35.1846 72.27 34.08C72.27 32.9754 71.3746 32.08 70.27 32.08C69.1654 32.08 68.27 32.9754 68.27 34.08C68.27 35.1846 69.1654 36.08 70.27 36.08Z" fill="#93E683"/>
<path d="M66.27 34.08C66.27 33.8148 66.3754 33.5604 66.5629 33.3729C66.7505 33.1853 67.0048 33.08 67.27 33.08C67.5352 33.08 67.7896 33.1853 67.9771 33.3729C68.1647 33.5604 68.27 33.8148 68.27 34.08" stroke="#1E231E" stroke-linecap="round" stroke-linejoin="round"/>
<path d="M64.27 36.08C65.3746 36.08 66.27 35.1846 66.27 34.08C66.27 32.9754 65.3746 32.08 64.27 32.08C63.1654 32.08 62.27 32.9754 62.27 34.08C62.27 35.1846 63.1654 36.08 64.27 36.08Z" stroke="#1E231E" stroke-linecap="round" stroke-linejoin="round"/>
<path d="M70.27 36.08C71.3746 36.08 72.27 35.1846 72.27 34.08C72.27 32.9754 71.3746 32.08 70.27 32.08C69.1654 32.08 68.27 32.9754 68.27 34.08C68.27 35.1846 69.1654 36.08 70.27 36.08Z" stroke="#1E231E" stroke-linecap="round" stroke-linejoin="round"/>
<path d="M56.5 82.08C72.5163 82.08 85.5 81.4084 85.5 80.58C85.5 79.7516 72.5163 79.08 56.5 79.08C40.4837 79.08 27.5 79.7516 27.5 80.58C27.5 81.4084 40.4837 82.08 56.5 82.08Z" fill="#C5EABF"/>
<path d="M24 35.58H21V24.08C21 23.9474 21.0527 23.8202 21.1464 23.7264C21.2402 23.6327 21.3674 23.58 21.5 23.58H23.5C23.6326 23.58 23.7598 23.6327 23.8536 23.7264C23.9473 23.8202 24 23.9474 24 24.08V35.58Z" fill="white" stroke="#1E231E" stroke-linecap="round" stroke-linejoin="round"/>
<path d="M24 25.58H21V27.58H24V25.58Z" fill="#93E683" stroke="#1E231E" stroke-linecap="round" stroke-linejoin="round"/>
<path d="M33 35.58H30V24.08C30 23.9474 30.0527 23.8202 30.1464 23.7264C30.2402 23.6327 30.3674 23.58 30.5 23.58H32.5C32.6326 23.58 32.7598 23.6327 32.8536 23.7264C32.9473 23.8202 33 23.9474 33 24.08V35.58Z" fill="white" stroke="#1E231E" stroke-linecap="round" stroke-linejoin="round"/>
<path d="M33 25.58H30V27.58H33V25.58Z" fill="#93E683" stroke="#1E231E" stroke-linecap="round" stroke-linejoin="round"/>
<path d="M27 35.58H24V26.08C24 25.9474 24.0527 25.8202 24.1464 25.7264C24.2402 25.6327 24.3674 25.58 24.5 25.58H26.5C26.6326 25.58 26.7598 25.6327 26.8536 25.7264C26.9473 25.8202 27 25.9474 27 26.08V35.58Z" fill="white" stroke="#1E231E" stroke-linecap="round" stroke-linejoin="round"/>
<path d="M27 27.58H24V29.58H27V27.58Z" fill="#93E683" stroke="#1E231E" stroke-linecap="round" stroke-linejoin="round"/>
<path d="M30 35.58H27V25.08C27 24.9474 27.0527 24.8202 27.1464 24.7264C27.2402 24.6327 27.3674 24.58 27.5 24.58H29.5C29.6326 24.58 29.7598 24.6327 29.8536 24.7264C29.9473 24.8202 30 24.9474 30 25.08V35.58Z" fill="white" stroke="#1E231E" stroke-linecap="round" stroke-linejoin="round"/>
<path d="M30 26.58H27V28.58H30V26.58Z" fill="#93E683" stroke="#1E231E" stroke-linecap="round" stroke-linejoin="round"/>
<path d="M36.62 33.4L34.79 30.09C34.7023 29.934 34.5745 29.8045 34.4197 29.7148C34.2649 29.6251 34.0889 29.5785 33.91 29.58H33V35.58H37V34.85C37.0012 34.3419 36.8702 33.8422 36.62 33.4V33.4Z" fill="#93E683" stroke="#1E231E" stroke-linecap="round" stroke-linejoin="round"/>
<path d="M39 36.58C39 36.8452 38.8946 37.0996 38.7071 37.2871C38.5196 37.4746 38.2652 37.58 38 37.58H11V35.58H38C38.2652 35.58 38.5196 35.6853 38.7071 35.8729C38.8946 36.0604 39 36.3148 39 36.58Z" fill="white" stroke="#1E231E" stroke-linecap="round" stroke-linejoin="round"/>
<path d="M33.62 40.58C33.5837 40.8513 33.4501 41.1002 33.2441 41.2804C33.0381 41.4606 32.7737 41.56 32.5 41.56C32.2263 41.56 31.9619 41.4606 31.7559 41.2804C31.5499 41.1002 31.4163 40.8513 31.38 40.58L31 37.58H34L33.62 40.58Z" fill="white" stroke="#1E231E" stroke-linecap="round" stroke-linejoin="round"/>
<path d="M83 60.58H30V77.58C30 78.1104 30.2107 78.6191 30.5858 78.9942C30.9609 79.3693 31.4696 79.58 32 79.58H81C81.5304 79.58 82.0391 79.3693 82.4142 78.9942C82.7893 78.6191 83 78.1104 83 77.58V60.58Z" fill="white"/>
<path d="M83 60.58H30V77.58C30 78.1104 30.2107 78.6191 30.5858 78.9942C30.9609 79.3693 31.4696 79.58 32 79.58H81C81.5304 79.58 82.0391 79.3693 82.4142 78.9942C82.7893 78.6191 83 78.1104 83 77.58V60.58Z" stroke="#1E231E" stroke-linecap="round" stroke-linejoin="round"/>
<path d="M77 60.58H36V79.58H77V60.58Z" fill="white"/>
<path d="M77 60.58H36V79.58H77V60.58Z" stroke="#1E231E" stroke-linecap="round" stroke-linejoin="round"/>
<path d="M71 63.58H42C40.3431 63.58 39 64.9231 39 66.58V73.58C39 75.2368 40.3431 76.58 42 76.58H71C72.6569 76.58 74 75.2368 74 73.58V66.58C74 64.9231 72.6569 63.58 71 63.58Z" fill="#93E683"/>
<path d="M71 63.58H42C40.3431 63.58 39 64.9231 39 66.58V73.58C39 75.2368 40.3431 76.58 42 76.58H71C72.6569 76.58 74 75.2368 74 73.58V66.58C74 64.9231 72.6569 63.58 71 63.58Z" stroke="#1E231E" stroke-linecap="round" stroke-linejoin="round"/>
<path d="M83 60.58C83.2652 60.58 83.5196 60.4746 83.7071 60.2871C83.8946 60.0996 84 59.8452 84 59.58C84 59.3148 83.8946 59.0604 83.7071 58.8729C83.5196 58.6853 83.2652 58.58 83 58.58H30C29.7348 58.58 29.4804 58.6853 29.2929 58.8729C29.1054 59.0604 29 59.3148 29 59.58C29 59.8452 29.1054 60.0996 29.2929 60.2871C29.4804 60.4746 29.7348 60.58 30 60.58H83Z" fill="#93E683" stroke="#1E231E" stroke-linecap="round" stroke-linejoin="round"/>
<path d="M43 56.58H30.5C30.5 57.1104 30.7107 57.6191 31.0858 57.9942C31.4609 58.3693 31.9696 58.58 32.5 58.58H43V56.58Z" fill="white" stroke="#1E231E" stroke-linecap="round" stroke-linejoin="round"/>
<path d="M49 58.58H43V56.58H50C50.1326 56.58 50.2598 56.6327 50.3536 56.7264C50.4473 56.8202 50.5 56.9474 50.5 57.08C50.5 57.4778 50.342 57.8593 50.0607 58.1406C49.7794 58.4219 49.3978 58.58 49 58.58V58.58Z" fill="white" stroke="#1E231E" stroke-linecap="round" stroke-linejoin="round"/>
<path d="M40 46.58H29.52C29.286 46.5795 29.0552 46.6338 28.8459 46.7385C28.6367 46.8432 28.4548 46.9954 28.3149 47.183C28.1749 47.3705 28.0808 47.5882 28.04 47.8186C27.9993 48.049 28.013 48.2858 28.08 48.51L30.5 56.58H43L40 46.58Z" fill="white"/>
<path d="M42.21 47.29L45 56.58H43L40 46.58H41.26C41.4734 46.5815 41.6807 46.6512 41.8516 46.7789C42.0225 46.9067 42.1481 47.0858 42.21 47.29Z" fill="white" stroke="#1E231E" stroke-linecap="round" stroke-linejoin="round"/>
<path d="M40 46.58H29.52C29.286 46.5795 29.0552 46.6338 28.8459 46.7385C28.6367 46.8432 28.4548 46.9954 28.3149 47.183C28.1749 47.3705 28.0808 47.5882 28.04 47.8186C27.9993 48.049 28.013 48.2858 28.08 48.51L30.5 56.58H43L40 46.58Z" stroke="#1E231E" stroke-linecap="round" stroke-linejoin="round"/>
<path d="M36.2201 51.67C36.2197 51.5452 36.2517 51.4224 36.3131 51.3137C36.3745 51.205 36.463 51.1141 36.5701 51.05C36.5029 50.9519 36.4136 50.8709 36.3094 50.8136C36.2052 50.7562 36.0889 50.7242 35.9701 50.72C35.7201 50.72 35.4801 50.87 35.3501 50.87C35.2201 50.87 35.0201 50.73 34.8101 50.73C34.6719 50.7319 34.5368 50.771 34.4189 50.8431C34.301 50.9152 34.2047 51.0178 34.1401 51.14C34.0293 51.4074 33.9895 51.6989 34.0246 51.9863C34.0596 52.2736 34.1683 52.547 34.3401 52.78C34.4801 52.98 34.6401 53.2 34.8601 53.19C35.0801 53.18 35.1401 53.06 35.3901 53.06C35.6401 53.06 35.7101 53.19 35.9301 53.19C36.1501 53.19 36.2901 52.99 36.4301 52.79C36.5252 52.6466 36.6025 52.4921 36.6601 52.33C36.5302 52.2751 36.4192 52.1834 36.341 52.066C36.2628 51.9487 36.2207 51.811 36.2201 51.67V51.67Z" fill="#93E683" stroke="#1E231E" stroke-linejoin="round"/>
<path d="M35.6599 49.87L35.9599 49.58" stroke="#1E231E" stroke-linecap="round" stroke-linejoin="round"/>
<path d="M68 39.58H49C47.8954 39.58 47 40.4754 47 41.58V53.58C47 54.6846 47.8954 55.58 49 55.58H68C69.1046 55.58 70 54.6846 70 53.58V41.58C70 40.4754 69.1046 39.58 68 39.58Z" fill="white"/>
<path d="M68 39.58H49C47.8954 39.58 47 40.4754 47 41.58V53.58C47 54.6846 47.8954 55.58 49 55.58H68C69.1046 55.58 70 54.6846 70 53.58V41.58C70 40.4754 69.1046 39.58 68 39.58Z" stroke="#1E231E" stroke-linecap="round" stroke-linejoin="round"/>
<path d="M50 41.58H67" stroke="#1E231E" stroke-linecap="round" stroke-linejoin="round"/>
<path d="M62 58.58H55L55.85 48.41C55.8927 47.9096 56.1221 47.4435 56.4926 47.1045C56.8632 46.7654 57.3477 46.5782 57.85 46.58H59.17C59.6723 46.5782 60.1568 46.7654 60.5273 47.1045C60.8979 47.4435 61.1273 47.9096 61.17 48.41L62 58.58Z" fill="white" stroke="#1E231E" stroke-linecap="round" stroke-linejoin="round"/>
<path d="M50 51.58V52.58" stroke="#1E231E" stroke-linecap="round" stroke-linejoin="round"/>
<path d="M52 51.58V52.58" stroke="#1E231E" stroke-linecap="round" stroke-linejoin="round"/>
<path d="M54 51.58V52.58" stroke="#1E231E" stroke-linecap="round" stroke-linejoin="round"/>
<path d="M29.8499 68.78C29.8499 71.09 28.8499 72.98 27.5199 72.98C26.1899 72.98 25.1799 71.09 25.1799 68.78C25.3334 67.2778 26.0475 65.8888 27.1799 64.89C27.2717 64.799 27.3957 64.7479 27.5249 64.7479C27.6542 64.7479 27.7782 64.799 27.8699 64.89C28.9949 65.8921 29.7017 67.2807 29.8499 68.78V68.78Z" fill="white" stroke="#1E231E" stroke-linecap="round" stroke-linejoin="round"/>
<path d="M27.5201 73L24.6501 66.3C24.61 66.2113 24.5454 66.136 24.4639 66.0828C24.3824 66.0296 24.2874 66.0009 24.1901 66C24.0899 65.9999 23.9921 66.0305 23.9098 66.0878C23.8276 66.145 23.7648 66.226 23.7301 66.32L23.2801 67.42C22.9278 68.3061 22.9404 69.2956 23.3151 70.1724C23.6898 71.0492 24.3962 71.7422 25.2801 72.1L27.5201 73Z" fill="white" stroke="#1E231E" stroke-linecap="round" stroke-linejoin="round"/>
<path d="M27.52 73L30.38 66.3C30.4218 66.2105 30.4882 66.1348 30.5714 66.0817C30.6546 66.0286 30.7513 66.0002 30.85 66C30.9496 66.0026 31.0462 66.0343 31.1279 66.0912C31.2096 66.148 31.273 66.2276 31.31 66.32L31.75 67.42C32.1051 68.3058 32.0938 69.2964 31.7188 70.174C31.3438 71.0516 30.6356 71.7443 29.75 72.1L27.52 73Z" fill="white" stroke="#1E231E" stroke-linecap="round" stroke-linejoin="round"/>
<path d="M23 72.58C22.866 72.5792 22.7332 72.6053 22.6095 72.6569C22.4859 72.7084 22.3738 72.7843 22.28 72.88C22.0996 73.0803 21.9998 73.3404 22 73.61C22.2 79.24 24 80.61 24 80.61H31C31 80.61 32.78 79.27 33 73.61C33.0048 73.4757 32.9824 73.3419 32.9343 73.2165C32.8862 73.091 32.8133 72.9766 32.72 72.88C32.6262 72.7843 32.5141 72.7084 32.3905 72.6569C32.2668 72.6053 32.134 72.5792 32 72.58H23Z" fill="white"/>
<path d="M23 72.58C22.866 72.5792 22.7332 72.6053 22.6095 72.6569C22.4859 72.7084 22.3738 72.7843 22.28 72.88C22.0996 73.0803 21.9998 73.3404 22 73.61C22.2 79.24 24 80.61 24 80.61H31C31 80.61 32.78 79.27 33 73.61C33.0048 73.4757 32.9824 73.3419 32.9343 73.2165C32.8862 73.091 32.8133 72.9766 32.72 72.88C32.6262 72.7843 32.5141 72.7084 32.3905 72.6569C32.2668 72.6053 32.134 72.5792 32 72.58H23Z" stroke="#1E231E" stroke-linecap="round" stroke-linejoin="round"/>
</svg>
